<svg xmlns="http://www.w3.org/2000/svg" xmlns:xlink="http://www.w3.org/1999/xlink" viewBox="0 0 763.92 666.7"><defs><style>.cls-1{fill:#fdcb00;}.cls-2{font-size:71.09px;font-family:Raleway-Medium, Raleway;font-weight:500;letter-spacing:-0.04em;}.cls-3{letter-spacing:-0.06em;}.cls-4{fill:url(#radial-gradient);}.cls-5{fill:url(#radial-gradient-8);}.cls-6{fill:url(#radial-gradient-9);}.cls-7{fill:url(#radial-gradient-10);}.cls-8{fill:url(#linear-gradient);}.cls-9{fill:url(#radial-gradient-11);}.cls-10{fill:url(#radial-gradient-12);}.cls-11{fill:url(#radial-gradient-13);}.cls-12{fill:url(#linear-gradient-2);}.cls-13{fill:url(#radial-gradient-14);}.cls-14{fill:url(#radial-gradient-15);}.cls-15{fill:url(#radial-gradient-45);}.cls-16{fill:url(#radial-gradient-46);}.cls-17{fill:url(#radial-gradient-47);}.cls-18{fill:url(#radial-gradient-48);}.cls-19{fill:url(#linear-gradient-3);}</style><radialGradient id="radial-gradient" cx="509" cy="159.94" r="85.83" gradientTransform="translate(-166.87 -3.69) scale(1.32 1.32)" gradientUnits="userSpaceOnUse"><stop offset="0" stop-color="#0067ff"/><stop offset="1" stop-color="#5c32ff"/></radialGradient><radialGradient id="radial-gradient-8" cx="406.39" cy="218.04" r="199.77" gradientTransform="matrix(1, 0, 0, 1, 0, 0)" xlink:href="#radial-gradient"/><radialGradient id="radial-gradient-9" cx="-44.38" cy="167.31" r="315.88" gradientTransform="matrix(1, 0, 0, 1, 0, 0)" xlink:href="#radial-gradient"/><radialGradient id="radial-gradient-10" cx="90.73" cy="103.55" r="361.3" gradientTransform="matrix(1, 0, 0, 1, 0, 0)" xlink:href="#radial-gradient"/><linearGradient id="linear-gradient" x1="25.45" y1="446.43" x2="25.45" y2="294.99" gradientUnits="userSpaceOnUse"><stop offset="0" stop-color="#4a06fd" stop-opacity="0"/><stop offset="1" stop-color="#6500ff"/></linearGradient><radialGradient id="radial-gradient-11" cx="-75.43" cy="234.44" r="270.05" gradientTransform="matrix(1, 0, 0, 1, 0, 0)" xlink:href="#radial-gradient"/><radialGradient id="radial-gradient-12" cx="283.82" cy="286.02" r="149.56" gradientTransform="matrix(1, 0, 0, 1, 0, 0)" xlink:href="#radial-gradient"/><radialGradient id="radial-gradient-13" cx="489.01" cy="204.18" r="299.11" gradientTransform="matrix(1, 0, 0, 1, 0, 0)" xlink:href="#radial-gradient"/><linearGradient id="linear-gradient-2" x1="573.16" y1="405.48" x2="573.16" y2="298.71" xlink:href="#linear-gradient"/><radialGradient id="radial-gradient-14" cx="489.01" cy="216.52" r="287.6" gradientTransform="matrix(1, 0, 0, 1, 0, 0)" xlink:href="#radial-gradient"/><radialGradient id="radial-gradient-15" cx="332.96" cy="331.31" r="257.89" gradientTransform="matrix(1, 0, 0, 1, 0, 0)" xlink:href="#radial-gradient"/><radialGradient id="radial-gradient-45" cx="473.52" cy="324.49" r="324.18" gradientTransform="matrix(1, 0, 0, 1, 0, 0)" xlink:href="#radial-gradient"/><radialGradient id="radial-gradient-46" cx="266.24" cy="137.34" r="58.55" gradientTransform="matrix(1, 0, 0, 1, 0, 0)" xlink:href="#radial-gradient"/><radialGradient id="radial-gradient-47" cx="311.39" cy="87.65" r="37.42" gradientTransform="matrix(1, 0, 0, 1, 0, 0)" xlink:href="#radial-gradient"/><radialGradient id="radial-gradient-48" cx="359.36" cy="87.53" r="34.56" gradientTransform="matrix(1, 0, 0, 1, 0, 0)" xlink:href="#radial-gradient"/><linearGradient id="linear-gradient-3" y1="333.35" x2="763.92" y2="333.35" gradientUnits="userSpaceOnUse"><stop offset="0" stop-color="#0000b0"/><stop offset="1" stop-color="#006dff"/></linearGradient></defs><g id="Layer_2" data-name="Layer 2"><g id="New_logo" data-name="New logo"><path class="cls-1" d="M508.74,606.73c28.76-9.37,55.88-21.92,80.44-38.12,3.13-1.94,6.09-4.12,9.07-6.25,1.48-1.08,3-2.07,4.48-3.19l4.34-3.36,4.35-3.36,4.19-3.53c2.78-2.38,5.66-4.63,8.27-7.2l4-3.73,2-1.85,1-.92,1-1,7.65-7.83c1.29-1.29,2.47-2.69,3.7-4s2.48-2.68,3.66-4.07l3.52-4.18,1.77-2.09,1.68-2.15A282.46,282.46,0,0,0,697.06,434a325.19,325.19,0,0,0,13-42.38c1.73-7.23,3.18-14.55,4.49-21.93.63-3.69,1.21-7.4,1.7-11.12s1-7.47,1.42-11.23c.47,3.76.73,7.54,1,11.33s.24,7.59.27,11.4c0,7.61-.43,15.23-1.18,22.83a244.88,244.88,0,0,1-8.91,45.1A237.84,237.84,0,0,1,595.59,579.24C568.6,594.09,538.9,603.79,508.74,606.73Z"/><path class="cls-1" d="M409.33,112.16a99.82,99.82,0,0,0,2.26-28.87,83.09,83.09,0,0,0-2.37-14.06c-.33-1.13-.58-2.29-1-3.42l-1.12-3.37-1.33-3.29a30.23,30.23,0,0,0-1.43-3.25l-1.56-3.18c-.5-1.07-1.18-2-1.76-3.08-1.12-2.09-2.53-4-3.85-6A93.66,93.66,0,0,0,388,32.78,112.82,112.82,0,0,0,364.8,15.31a75.71,75.71,0,0,1,25.81,14.6l2.81,2.51c.92.86,1.77,1.79,2.66,2.68.43.45.89.89,1.31,1.36l1.22,1.45c.8,1,1.66,1.9,2.41,2.92a74.34,74.34,0,0,1,4.28,6.26l1,1.63a16.8,16.8,0,0,1,.93,1.66l1.7,3.4a35.94,35.94,0,0,1,1.5,3.49c.46,1.18.94,2.35,1.38,3.54l1.11,3.63c.38,1.21.63,2.46.92,3.68a68.58,68.58,0,0,1,1.65,15A70.08,70.08,0,0,1,409.33,112.16Z"/><path class="cls-1" d="M251.56,66.85a145.6,145.6,0,0,0,2,24.61c.32,2,.78,4,1.16,6s.89,4,1.49,5.92c1,3.94,2.39,7.78,3.8,11.58a119.29,119.29,0,0,0,11.12,21.68A140.18,140.18,0,0,0,286.47,156a79.78,79.78,0,0,1-18.11-17.37,87.48,87.48,0,0,1-7-10.58c-1.06-1.84-1.95-3.76-2.89-5.66-.48-.94-.89-1.92-1.29-2.9L256,116.53a91.84,91.84,0,0,1-3.73-12.13,85.46,85.46,0,0,1-2-12.5A81.52,81.52,0,0,1,251.56,66.85Z"/><text class="cls-2" transform="translate(347.61 233.3)">YEARS O<tspan class="cls-3" x="278.94" y="0">F</tspan></text><path class="cls-4" d="M355.57,182.82l15.29,26.31,15.42-26.31h7l-19.2,32.06v18.41h-6.39V214.74l-19.12-31.92Z"/><path class="cls-4" d="M431.63,227.61v5.68H397.37V182.82H431v5.69H403.77v16.35h23.67v5.33H403.77v17.42Z"/><path class="cls-4" d="M452.89,182.82h5.4l20.62,50.47h-6.83l-6-14.78H444.93L439,233.29H432.2Zm11.8,30.71-9.1-23.31-9.38,23.31Z"/><path class="cls-4" d="M482.81,233.29V182.82h21.61a13.75,13.75,0,0,1,6.15,1.39,15.46,15.46,0,0,1,4.84,3.7,17.67,17.67,0,0,1,3.16,5.19,15.78,15.78,0,0,1,1.14,5.86A17.26,17.26,0,0,1,519,204a15.92,15.92,0,0,1-2.13,4.45,14.61,14.61,0,0,1-3.34,3.41,13.12,13.12,0,0,1-4.37,2.06l12.22,19.33h-7.25l-11.51-18.12H489.21v18.12Zm6.4-23.81H504.5a7.52,7.52,0,0,0,3.59-.85,8.63,8.63,0,0,0,2.73-2.31,11.22,11.22,0,0,0,1.78-3.38,12.38,12.38,0,0,0,.64-4,10.8,10.8,0,0,0-.75-4,12,12,0,0,0-2-3.34,9,9,0,0,0-2.91-2.27,7.87,7.87,0,0,0-3.52-.82H489.21Z"/><path class="cls-4" d="M556.32,193.42A10.2,10.2,0,0,0,554,191.5a19.22,19.22,0,0,0-3.2-1.67,22.22,22.22,0,0,0-3.87-1.21,20.18,20.18,0,0,0-4.37-.46q-5.91,0-8.64,2.2a7.35,7.35,0,0,0-2.74,6,6.62,6.62,0,0,0,.79,3.41,6.38,6.38,0,0,0,2.45,2.31,18.43,18.43,0,0,0,4.16,1.67q2.48.72,5.9,1.5a63,63,0,0,1,7.07,2A20.69,20.69,0,0,1,557,210a11,11,0,0,1,3.41,4,12.79,12.79,0,0,1,1.18,5.76,13.18,13.18,0,0,1-1.43,6.29,12.53,12.53,0,0,1-3.87,4.41,16.7,16.7,0,0,1-5.79,2.55,30.25,30.25,0,0,1-7.25.82A33.49,33.49,0,0,1,532.18,232a30.89,30.89,0,0,1-9.49-5.3l3.06-5.4a17,17,0,0,0,3,2.42,24.5,24.5,0,0,0,4.12,2.17,30.22,30.22,0,0,0,5,1.56,25.32,25.32,0,0,0,5.58.6q5.4,0,8.39-1.91a7.1,7.1,0,0,0,2-9.35,8.2,8.2,0,0,0-2.81-2.53,21.91,21.91,0,0,0-4.58-1.88q-2.74-.81-6.22-1.67a62.91,62.91,0,0,1-6.75-2,18.09,18.09,0,0,1-4.87-2.56,9.55,9.55,0,0,1-2.95-3.63,11.88,11.88,0,0,1-1-5.11A14.45,14.45,0,0,1,526,191a13.43,13.43,0,0,1,3.77-4.69,16.41,16.41,0,0,1,5.76-2.88A28,28,0,0,1,552,184a25.85,25.85,0,0,1,7.32,4.2Z"/><path class="cls-4" d="M602.73,233.65a21.49,21.49,0,0,1-9.7-2.17,23.88,23.88,0,0,1-7.5-5.76,26.29,26.29,0,0,1-4.83-8.21,27,27,0,0,1-1.71-9.45,26.69,26.69,0,0,1,6.83-17.84,23.88,23.88,0,0,1,7.57-5.65,21.59,21.59,0,0,1,9.49-2.1,20.65,20.65,0,0,1,9.66,2.24,24.9,24.9,0,0,1,7.47,5.86,27,27,0,0,1,4.83,8.21,26.6,26.6,0,0,1,1.71,9.35,26.9,26.9,0,0,1-6.79,17.81,23.87,23.87,0,0,1-7.54,5.61A21.59,21.59,0,0,1,602.73,233.65Zm-17.27-25.59a22.5,22.5,0,0,0,1.24,7.43,20.72,20.72,0,0,0,3.52,6.36,17,17,0,0,0,5.48,4.41,15.36,15.36,0,0,0,7.1,1.63,15,15,0,0,0,7.26-1.74,17.69,17.69,0,0,0,5.43-4.55,20.32,20.32,0,0,0,3.42-6.36,22.82,22.82,0,0,0,1.17-7.18,22.51,22.51,0,0,0-1.25-7.43,19.63,19.63,0,0,0-3.55-6.33,17.82,17.82,0,0,0-5.47-4.37,15.05,15.05,0,0,0-7-1.63,15.27,15.27,0,0,0-7.25,1.7,17.48,17.48,0,0,0-5.43,4.48,20.22,20.22,0,0,0-3.45,6.33A22.28,22.28,0,0,0,585.46,208.06Z"/><path class="cls-4" d="M632.59,233.29V182.82h33.34v5.69H639v16.85h22.67v5.33H639v22.6Z"/><path class="cls-5" d="M468.26,257.43V480.15H417.35V257.43Z"/><polygon class="cls-6" points="110.52 357.59 50.66 259.61 0.25 259.61 0.25 269.35 50.66 351.95 50.66 351.92 64.69 374.95 66.82 378.44 66.82 378.44 107.69 445.49 113.36 445.49 138.75 403.83 110.53 357.58 110.52 357.59"/><polygon class="cls-7" points="170.38 259.61 121.63 339.41 149.84 385.64 170.38 351.92 170.38 480.15 220.79 480.15 220.79 259.61 170.38 259.61"/><polygon class="cls-8" points="0.25 305.71 0 479.97 50.91 479.97 50.66 388.31 0.25 305.71"/><polygon class="cls-9" points="0.25 305.62 0.25 480.06 50.66 480.06 50.66 388.22 50.66 388.22 0.25 305.62"/><path class="cls-10" d="M231.65,425.64l43.48-25.2C283,418.71,296.55,431,321.44,431c23.94,0,29.93-9.45,29.93-18,0-13.55-12.6-18.9-45.69-28-32.76-9.14-64.89-24.89-64.89-67.11,0-42.53,35.91-67.1,74-67.1,36.22,0,64.58,17.32,80.65,49.77l-42.54,24.9c-7.56-15.76-17.95-25.53-38.11-25.53-15.76,0-23.64,7.88-23.64,16.7,0,10.08,5.36,17,39.7,27.41,33.4,10.08,70.89,21.74,70.89,68.37,0,42.53-34,67.74-81.92,67.74C273.55,480.15,243.93,458.09,231.65,425.64Z"/><rect class="cls-11" x="547.71" y="319.08" width="50.91" height="161.07"/><rect class="cls-12" x="547.71" y="319.08" width="50.91" height="161.07"/><rect class="cls-13" x="490.44" y="257.43" width="165.45" height="49"/><path class="cls-14" d="M355.57,182.82l15.29,26.31,15.42-26.31h7l-19.2,32.06v18.41h-6.39V214.74l-19.12-31.92Z"/><path class="cls-14" d="M431.63,227.61v5.68H397.37V182.82H431v5.69H403.77v16.35h23.67v5.33H403.77v17.42Z"/><path class="cls-14" d="M452.89,182.82h5.4l20.62,50.47h-6.83l-6-14.78H444.93L439,233.29H432.2Zm11.8,30.71-9.1-23.31-9.38,23.31Z"/><path class="cls-14" d="M482.81,233.29V182.82h21.61a13.75,13.75,0,0,1,6.15,1.39,15.46,15.46,0,0,1,4.84,3.7,17.67,17.67,0,0,1,3.16,5.19,15.78,15.78,0,0,1,1.14,5.86A17.26,17.26,0,0,1,519,204a15.92,15.92,0,0,1-2.13,4.45,14.61,14.61,0,0,1-3.34,3.41,13.12,13.12,0,0,1-4.37,2.06l12.22,19.33h-7.25l-11.51-18.12H489.21v18.12Zm6.4-23.81H504.5a7.52,7.52,0,0,0,3.59-.85,8.63,8.63,0,0,0,2.73-2.31,11.22,11.22,0,0,0,1.78-3.38,12.38,12.38,0,0,0,.64-4,10.8,10.8,0,0,0-.75-4,12,12,0,0,0-2-3.34,9,9,0,0,0-2.91-2.27,7.87,7.87,0,0,0-3.52-.82H489.21Z"/><path class="cls-14" d="M556.32,193.42A10.2,10.2,0,0,0,554,191.5a19.22,19.22,0,0,0-3.2-1.67,22.22,22.22,0,0,0-3.87-1.21,20.18,20.18,0,0,0-4.37-.46q-5.91,0-8.64,2.2a7.35,7.35,0,0,0-2.74,6,6.62,6.62,0,0,0,.79,3.41,6.38,6.38,0,0,0,2.45,2.31,18.43,18.43,0,0,0,4.16,1.67q2.48.72,5.9,1.5a63,63,0,0,1,7.07,2A20.69,20.69,0,0,1,557,210a11,11,0,0,1,3.41,4,12.79,12.79,0,0,1,1.18,5.76,13.18,13.18,0,0,1-1.43,6.29,12.53,12.53,0,0,1-3.87,4.41,16.7,16.7,0,0,1-5.79,2.55,30.25,30.25,0,0,1-7.25.82A33.49,33.49,0,0,1,532.18,232a30.89,30.89,0,0,1-9.49-5.3l3.06-5.4a17,17,0,0,0,3,2.42,24.5,24.5,0,0,0,4.12,2.17,30.22,30.22,0,0,0,5,1.56,25.32,25.32,0,0,0,5.58.6q5.4,0,8.39-1.91a7.1,7.1,0,0,0,2-9.35,8.2,8.2,0,0,0-2.81-2.53,21.91,21.91,0,0,0-4.58-1.88q-2.74-.81-6.22-1.67a62.91,62.91,0,0,1-6.75-2,18.09,18.09,0,0,1-4.87-2.56,9.55,9.55,0,0,1-2.95-3.63,11.88,11.88,0,0,1-1-5.11A14.45,14.45,0,0,1,526,191a13.43,13.43,0,0,1,3.77-4.69,16.41,16.41,0,0,1,5.76-2.88A28,28,0,0,1,552,184a25.85,25.85,0,0,1,7.32,4.2Z"/><path class="cls-14" d="M602.73,233.65a21.49,21.49,0,0,1-9.7-2.17,23.88,23.88,0,0,1-7.5-5.76,26.29,26.29,0,0,1-4.83-8.21,27,27,0,0,1-1.71-9.45,26.69,26.69,0,0,1,6.83-17.84,23.88,23.88,0,0,1,7.57-5.65,21.59,21.59,0,0,1,9.49-2.1,20.65,20.65,0,0,1,9.66,2.24,24.9,24.9,0,0,1,7.47,5.86,27,27,0,0,1,4.83,8.21,26.6,26.6,0,0,1,1.71,9.35,26.9,26.9,0,0,1-6.79,17.81,23.87,23.87,0,0,1-7.54,5.61A21.59,21.59,0,0,1,602.73,233.65Zm-17.27-25.59a22.5,22.5,0,0,0,1.24,7.43,20.72,20.72,0,0,0,3.52,6.36,17,17,0,0,0,5.48,4.41,15.36,15.36,0,0,0,7.1,1.63,15,15,0,0,0,7.26-1.74,17.69,17.69,0,0,0,5.43-4.55,20.32,20.32,0,0,0,3.42-6.36,22.82,22.82,0,0,0,1.17-7.18,22.51,22.51,0,0,0-1.25-7.43,19.63,19.63,0,0,0-3.55-6.33,17.82,17.82,0,0,0-5.47-4.37,15.05,15.05,0,0,0-7-1.63,15.27,15.27,0,0,0-7.25,1.7,17.48,17.48,0,0,0-5.43,4.48,20.22,20.22,0,0,0-3.45,6.33A22.28,22.28,0,0,0,585.46,208.06Z"/><path class="cls-14" d="M632.59,233.29V182.82h33.34v5.69H639v16.85h22.67v5.33H639v22.6Z"/><path class="cls-14" d="M355.57,182.82l15.29,26.31,15.42-26.31h7l-19.2,32.06v18.41h-6.39V214.74l-19.12-31.92Z"/><path class="cls-14" d="M431.63,227.61v5.68H397.37V182.82H431v5.69H403.77v16.35h23.67v5.33H403.77v17.42Z"/><path class="cls-14" d="M452.89,182.82h5.4l20.62,50.47h-6.83l-6-14.78H444.93L439,233.29H432.2Zm11.8,30.71-9.1-23.31-9.38,23.31Z"/><path class="cls-14" d="M482.81,233.29V182.82h21.61a13.75,13.75,0,0,1,6.15,1.39,15.46,15.46,0,0,1,4.84,3.7,17.67,17.67,0,0,1,3.16,5.19,15.78,15.78,0,0,1,1.14,5.86A17.26,17.26,0,0,1,519,204a15.92,15.92,0,0,1-2.13,4.45,14.61,14.61,0,0,1-3.34,3.41,13.12,13.12,0,0,1-4.37,2.06l12.22,19.33h-7.25l-11.51-18.12H489.21v18.12Zm6.4-23.81H504.5a7.52,7.52,0,0,0,3.59-.85,8.63,8.63,0,0,0,2.73-2.31,11.22,11.22,0,0,0,1.78-3.38,12.38,12.38,0,0,0,.64-4,10.8,10.8,0,0,0-.75-4,12,12,0,0,0-2-3.34,9,9,0,0,0-2.91-2.27,7.87,7.87,0,0,0-3.52-.82H489.21Z"/><path class="cls-14" d="M556.32,193.42A10.2,10.2,0,0,0,554,191.5a19.22,19.22,0,0,0-3.2-1.67,22.22,22.22,0,0,0-3.87-1.21,20.18,20.18,0,0,0-4.37-.46q-5.91,0-8.64,2.2a7.35,7.35,0,0,0-2.74,6,6.62,6.62,0,0,0,.79,3.41,6.38,6.38,0,0,0,2.45,2.31,18.43,18.43,0,0,0,4.16,1.67q2.48.72,5.9,1.5a63,63,0,0,1,7.07,2A20.69,20.69,0,0,1,557,210a11,11,0,0,1,3.41,4,12.79,12.79,0,0,1,1.18,5.76,13.18,13.18,0,0,1-1.43,6.29,12.53,12.53,0,0,1-3.87,4.41,16.7,16.7,0,0,1-5.79,2.55,30.25,30.25,0,0,1-7.25.82A33.49,33.49,0,0,1,532.18,232a30.89,30.89,0,0,1-9.49-5.3l3.06-5.4a17,17,0,0,0,3,2.42,24.5,24.5,0,0,0,4.12,2.17,30.22,30.22,0,0,0,5,1.56,25.32,25.32,0,0,0,5.58.6q5.4,0,8.39-1.91a7.1,7.1,0,0,0,2-9.35,8.2,8.2,0,0,0-2.81-2.53,21.91,21.91,0,0,0-4.58-1.88q-2.74-.81-6.22-1.67a62.91,62.91,0,0,1-6.75-2,18.09,18.09,0,0,1-4.87-2.56,9.55,9.55,0,0,1-2.95-3.63,11.88,11.88,0,0,1-1-5.11A14.45,14.45,0,0,1,526,191a13.43,13.43,0,0,1,3.77-4.69,16.41,16.41,0,0,1,5.76-2.88A28,28,0,0,1,552,184a25.85,25.85,0,0,1,7.32,4.2Z"/><path class="cls-14" d="M602.73,233.65a21.49,21.49,0,0,1-9.7-2.17,23.88,23.88,0,0,1-7.5-5.76,26.29,26.29,0,0,1-4.83-8.21,27,27,0,0,1-1.71-9.45,26.69,26.69,0,0,1,6.83-17.84,23.88,23.88,0,0,1,7.57-5.65,21.59,21.59,0,0,1,9.49-2.1,20.65,20.65,0,0,1,9.66,2.24,24.9,24.9,0,0,1,7.47,5.86,27,27,0,0,1,4.83,8.21,26.6,26.6,0,0,1,1.71,9.35,26.9,26.9,0,0,1-6.79,17.81,23.87,23.87,0,0,1-7.54,5.61A21.59,21.59,0,0,1,602.73,233.65Zm-17.27-25.59a22.5,22.5,0,0,0,1.24,7.43,20.72,20.72,0,0,0,3.52,6.36,17,17,0,0,0,5.48,4.41,15.36,15.36,0,0,0,7.1,1.63,15,15,0,0,0,7.26-1.74,17.69,17.69,0,0,0,5.43-4.55,20.32,20.32,0,0,0,3.42-6.36,22.82,22.82,0,0,0,1.17-7.18,22.51,22.51,0,0,0-1.25-7.43,19.63,19.63,0,0,0-3.55-6.33,17.82,17.82,0,0,0-5.47-4.37,15.05,15.05,0,0,0-7-1.63,15.27,15.27,0,0,0-7.25,1.7,17.48,17.48,0,0,0-5.43,4.48,20.22,20.22,0,0,0-3.45,6.33A22.28,22.28,0,0,0,585.46,208.06Z"/><path class="cls-14" d="M632.59,233.29V182.82h33.34v5.69H639v16.85h22.67v5.33H639v22.6Z"/><path class="cls-14" d="M355.57,182.82l15.29,26.31,15.42-26.31h7l-19.2,32.06v18.41h-6.39V214.74l-19.12-31.92Z"/><path class="cls-14" d="M431.63,227.61v5.68H397.37V182.82H431v5.69H403.77v16.35h23.67v5.33H403.77v17.42Z"/><path class="cls-14" d="M452.89,182.82h5.4l20.62,50.47h-6.83l-6-14.78H444.93L439,233.29H432.2Zm11.8,30.71-9.1-23.31-9.38,23.31Z"/><path class="cls-14" d="M482.81,233.29V182.82h21.61a13.75,13.75,0,0,1,6.15,1.39,15.46,15.46,0,0,1,4.84,3.7,17.67,17.67,0,0,1,3.16,5.19,15.78,15.78,0,0,1,1.14,5.86A17.26,17.26,0,0,1,519,204a15.92,15.92,0,0,1-2.13,4.45,14.61,14.61,0,0,1-3.34,3.41,13.12,13.12,0,0,1-4.37,2.06l12.22,19.33h-7.25l-11.51-18.12H489.21v18.12Zm6.4-23.81H504.5a7.52,7.52,0,0,0,3.59-.85,8.63,8.63,0,0,0,2.73-2.31,11.22,11.22,0,0,0,1.78-3.38,12.38,12.38,0,0,0,.64-4,10.8,10.8,0,0,0-.75-4,12,12,0,0,0-2-3.34,9,9,0,0,0-2.91-2.27,7.87,7.87,0,0,0-3.52-.82H489.21Z"/><path class="cls-14" d="M556.32,193.42A10.2,10.2,0,0,0,554,191.5a19.22,19.22,0,0,0-3.2-1.67,22.22,22.22,0,0,0-3.87-1.21,20.18,20.18,0,0,0-4.37-.46q-5.91,0-8.64,2.2a7.35,7.35,0,0,0-2.74,6,6.62,6.62,0,0,0,.79,3.41,6.38,6.38,0,0,0,2.45,2.31,18.43,18.43,0,0,0,4.16,1.67q2.48.72,5.9,1.5a63,63,0,0,1,7.07,2A20.69,20.69,0,0,1,557,210a11,11,0,0,1,3.41,4,12.79,12.79,0,0,1,1.18,5.76,13.18,13.18,0,0,1-1.43,6.29,12.53,12.53,0,0,1-3.87,4.41,16.7,16.7,0,0,1-5.79,2.55,30.25,30.25,0,0,1-7.25.82A33.49,33.49,0,0,1,532.18,232a30.89,30.89,0,0,1-9.49-5.3l3.06-5.4a17,17,0,0,0,3,2.42,24.5,24.5,0,0,0,4.12,2.17,30.22,30.22,0,0,0,5,1.56,25.32,25.32,0,0,0,5.58.6q5.4,0,8.39-1.91a7.1,7.1,0,0,0,2-9.35,8.2,8.2,0,0,0-2.81-2.53,21.91,21.91,0,0,0-4.58-1.88q-2.74-.81-6.22-1.67a62.91,62.91,0,0,1-6.75-2,18.09,18.09,0,0,1-4.87-2.56,9.55,9.55,0,0,1-2.95-3.63,11.88,11.88,0,0,1-1-5.11A14.45,14.45,0,0,1,526,191a13.43,13.43,0,0,1,3.77-4.69,16.41,16.41,0,0,1,5.76-2.88A28,28,0,0,1,552,184a25.85,25.85,0,0,1,7.32,4.2Z"/><path class="cls-14" d="M602.73,233.65a21.49,21.49,0,0,1-9.7-2.17,23.88,23.88,0,0,1-7.5-5.76,26.29,26.29,0,0,1-4.83-8.21,27,27,0,0,1-1.71-9.45,26.69,26.69,0,0,1,6.83-17.84,23.88,23.88,0,0,1,7.57-5.65,21.59,21.59,0,0,1,9.49-2.1,20.65,20.65,0,0,1,9.66,2.24,24.9,24.9,0,0,1,7.47,5.86,27,27,0,0,1,4.83,8.21,26.6,26.6,0,0,1,1.71,9.35,26.9,26.9,0,0,1-6.79,17.81,23.87,23.87,0,0,1-7.54,5.61A21.59,21.59,0,0,1,602.73,233.65Zm-17.27-25.59a22.5,22.5,0,0,0,1.24,7.43,20.72,20.72,0,0,0,3.52,6.36,17,17,0,0,0,5.48,4.41,15.36,15.36,0,0,0,7.1,1.63,15,15,0,0,0,7.26-1.74,17.69,17.69,0,0,0,5.43-4.55,20.32,20.32,0,0,0,3.42-6.36,22.82,22.82,0,0,0,1.17-7.18,22.51,22.51,0,0,0-1.25-7.43,19.63,19.63,0,0,0-3.55-6.33,17.82,17.82,0,0,0-5.47-4.37,15.05,15.05,0,0,0-7-1.63,15.27,15.27,0,0,0-7.25,1.7,17.48,17.48,0,0,0-5.43,4.48,20.22,20.22,0,0,0-3.45,6.33A22.28,22.28,0,0,0,585.46,208.06Z"/><path class="cls-14" d="M632.59,233.29V182.82h33.34v5.69H639v16.85h22.67v5.33H639v22.6Z"/><path class="cls-14" d="M468.26,257.43V480.15H417.35V257.43Z"/><polygon class="cls-14" points="110.52 357.59 50.66 259.61 0.25 259.61 0.25 269.35 50.66 351.95 50.66 351.92 64.69 374.95 66.82 378.44 66.82 378.44 107.69 445.49 113.36 445.49 138.75 403.83 110.53 357.58 110.52 357.59"/><polygon class="cls-14" points="170.38 259.61 121.63 339.41 149.84 385.64 170.38 351.92 170.38 480.15 220.79 480.15 220.79 259.61 170.38 259.61"/><polygon class="cls-14" points="0.25 305.71 0 479.97 50.91 479.97 50.66 388.31 0.25 305.71"/><polygon class="cls-14" points="0.25 305.62 0.25 480.06 50.66 480.06 50.66 388.22 50.66 388.22 0.25 305.62"/><path class="cls-14" d="M231.65,425.64l43.48-25.2C283,418.71,296.55,431,321.44,431c23.94,0,29.93-9.45,29.93-18,0-13.55-12.6-18.9-45.69-28-32.76-9.14-64.89-24.89-64.89-67.11,0-42.53,35.91-67.1,74-67.1,36.22,0,64.58,17.32,80.65,49.77l-42.54,24.9c-7.56-15.76-17.95-25.53-38.11-25.53-15.76,0-23.64,7.88-23.64,16.7,0,10.08,5.36,17,39.7,27.41,33.4,10.08,70.89,21.74,70.89,68.37,0,42.53-34,67.74-81.92,67.74C273.55,480.15,243.93,458.09,231.65,425.64Z"/><rect class="cls-14" x="547.71" y="319.08" width="50.91" height="161.07"/><rect class="cls-14" x="547.71" y="319.08" width="50.91" height="161.07"/><rect class="cls-14" x="490.44" y="257.43" width="165.45" height="49"/><path class="cls-15" d="M759.4,300.7l-2.35-12.17-.3-1.52-.36-1.5-.74-3-1.48-6c-.9-4-2.16-8-3.33-11.92l-1.78-5.93c-.27-1-.64-2-1-2.93l-1-2.92L745,247l-1-2.91c-.33-1-.76-1.92-1.14-2.88l-4.69-11.43-5.24-11.19c-.44-.93-.86-1.87-1.32-2.79L730.12,213l-2.89-5.45a304.15,304.15,0,0,0-59.61-77.89l-4.5-4.18c-1.51-1.39-3-2.81-4.57-4.11l-9.38-7.92L639.43,106c-.82-.61-1.61-1.26-2.45-1.84l-2.52-1.75-5.05-3.49a300.52,300.52,0,0,0-88.29-41.36L535.23,56l-3-.8c-1-.27-2-.54-3-.74l-11.93-2.61-1.49-.33-1.5-.26-3-.5-6-1-3-.51L500.85,49l-1.51-.18-6.06-.7-6.06-.7-1.51-.17c-.51,0-1-.07-1.52-.11l-3-.2-6.08-.39-3-.2c-1-.06-2-.14-3-.13L456.81,46c-2-.06-4.06,0-6.09,0s-4.06.09-6.09.2q-14.75.6-29.38,2.67A69.56,69.56,0,0,0,409.69,39a88,88,0,0,0-11.5-13.67A87.95,87.95,0,0,0,334.25,0a89.07,89.07,0,0,1,17.16,2.54,87,87,0,0,1,16.25,5.71,87.9,87.9,0,0,1,27.5,20,91.7,91.7,0,0,1,10.24,13.5,122.62,122.62,0,0,1,8,14.9c.53,1.31,1.13,2.6,1.62,3.93s1,2.64,1.48,4q1.37,4.05,2.44,8.2a120,120,0,0,1,2.93,17.07A76.25,76.25,0,0,0,417.71,55c-.23-.65-.48-1.3-.73-2q13.86-1.61,27.81-1.9c2-.07,4-.08,6-.07s4,0,6,.07l12,.43c1,0,2,.12,3,.21l3,.26,6,.52,3,.26c.5,0,1,.08,1.49.14l1.48.2,5.92.83,5.93.82,1.48.21,1.46.28,2.94.56,5.87,1.12,2.93.55,1.47.29,1.45.35L527.67,61c1,.22,1.92.5,2.88.79l2.86.85,5.72,1.7a308.89,308.89,0,0,1,44.26,17.63,306.18,306.18,0,0,1,40.68,24.64l4.8,3.51,2.4,1.75c.8.59,1.55,1.24,2.33,1.85l9.24,7.47,8.87,7.89c1.51,1.29,2.9,2.7,4.31,4.08l4.25,4.15a309.37,309.37,0,0,1,30.83,36,299.84,299.84,0,0,1,24.5,40.41l2.62,5.3,1.31,2.64c.41.9.79,1.81,1.18,2.71l4.7,10.82,4.17,11c.33.92.72,1.83,1,2.77l.9,2.8,1.81,5.61.9,2.81c.3.93.63,1.86.86,2.81l1.53,5.69c1,3.8,2.11,7.57,2.85,11.42l1.24,5.76.62,2.87.31,1.44.24,1.45,1.9,11.61A318,318,0,0,1,746.69,350a309.36,309.36,0,0,1-4.61,46.61l-2.25,11.48L737,419.46c-.24.94-.46,1.89-.72,2.83l-.84,2.8-1.69,5.59c-.57,1.86-1.09,3.73-1.7,5.58l-2,5.5c-2.47,7.38-5.55,14.53-8.59,21.67l-5,10.54c-.4.89-.85,1.74-1.32,2.6l-1.37,2.57-2.73,5.13a298.94,298.94,0,0,1-25.5,38.83l-7.34,9c-.31.38-.6.76-.92,1.12l-1,1.08-1.94,2.16-3.87,4.32-1.94,2.15c-.63.73-1.34,1.39-2,2.09l-4.08,4.12-4.07,4.12-4.26,3.92A276.15,276.15,0,0,1,618,585.81a297.68,297.68,0,0,1-40.24,22.42l-10.57,4.53c-.87.4-1.77.74-2.67,1.06l-2.7,1-5.38,2c-3.56,1.42-7.25,2.46-10.89,3.64L540,622.21c-1.84.53-3.7,1-5.54,1.48l-5.55,1.46-2.77.73c-.93.23-1.87.4-2.8.6l-11.22,2.37-11.31,1.79-2.82.46-2.85.3-5.69.61a284.27,284.27,0,0,1-45.66,1.09,290.07,290.07,0,0,1-45.07-6.24l-5.53-1.3c-.92-.22-1.85-.42-2.76-.66l-2.74-.74-5.48-1.48L376.81,621l-2.71-.83c-.91-.27-1.8-.6-2.69-.89L366,617.5c-1.79-.61-3.54-1.31-5.32-2s-3.54-1.29-5.28-2A279.54,279.54,0,0,1,315,593.35l-4.81-2.94-4.73-3.08-2.36-1.54-2.31-1.61L296.18,581c-6.06-4.45-12.05-9-17.72-13.9a280.46,280.46,0,0,1-31.77-31.69c-1.24-1.4-2.39-2.87-3.57-4.31s-2.38-2.88-3.52-4.36c-2.25-3-4.58-5.89-6.71-9-1.08-1.52-2.18-3-3.25-4.55l-3.11-4.64L225,506.23l-1.48-2.37-3-4.72-50.2-.17c16.27,31.79,39.94,68,82,100.34,6.76,5.33,13.84,10.23,21,15l5.44,3.46,2.72,1.73,2.77,1.64,5.53,3.29,5.64,3.12a317.13,317.13,0,0,0,46.89,21c2,.75,4.05,1.37,6.07,2.06s4.05,1.36,6.1,2l6.15,1.81c1,.3,2.05.62,3.08.89l3.1.81,6.2,1.62,6.25,1.42,3.12.71c1,.23,2.09.41,3.14.62l6.28,1.22a320,320,0,0,0,101.54,1.87l6.29-.91,3.14-.46,3.12-.61,12.46-2.46L530.67,656c1-.26,2.06-.5,3.08-.78l3-.92,6.07-1.84c2-.63,4-1.2,6.06-1.87l6-2.13c4-1.45,8-2.76,11.85-4.46l5.85-2.43,2.93-1.21c1-.4,2-.81,2.89-1.27l11.44-5.42a328.41,328.41,0,0,0,43.22-26,302.58,302.58,0,0,0,38.4-32.5l4.48-4.41,4.26-4.62,4.26-4.62c.7-.78,1.45-1.51,2.11-2.33l2-2.4,4-4.81,2-2.41,1-1.2c.33-.41.64-.83,1-1.25l7.59-10a329.18,329.18,0,0,0,26.13-42.7l2.77-5.61,1.38-2.8c.47-.94.93-1.87,1.33-2.84l5-11.47c3-7.76,6.07-15.52,8.48-23.49l1.91-5.95c.59-2,1.09-4,1.64-6l1.62-6,.8-3c.25-1,.45-2,.67-3L758.53,412l2-12.3a328,328,0,0,0,3.37-49.57A336,336,0,0,0,759.4,300.7Z"/><path class="cls-16" d="M314.84,175.18a89.18,89.18,0,0,1-44.38-25.27,95.23,95.23,0,0,1-18.9-28.54,92,92,0,0,1-7.14-33.72,85.82,85.82,0,0,0,5.5,34.37c.57,1.51,1.19,3,1.84,4.47q-10.75,9.93-20.53,20.86A302.75,302.75,0,0,0,202,185.77a303.11,303.11,0,0,1,29.66-38c6.51-7.09,13.38-13.86,20.53-20.29a83.13,83.13,0,0,0,16.6,24.09A89.22,89.22,0,0,0,297.89,171a88.17,88.17,0,0,0,16.78,5,90.65,90.65,0,0,0,17.38,1.52A90.42,90.42,0,0,1,314.84,175.18Z"/><path class="cls-17" d="M332.26,117.55H298L316.31,97.7c10.26-11.12,15.25-20.55,15.25-28.82,0-6.86-2.34-12.44-6.95-16.61s-10.79-6.2-18.51-6.2c-8.24,0-14.94,2.42-19.91,7.18s-7.54,11.12-7.54,18.81v1.77h13.52V72.06c0-4.59,1.19-8,3.63-10.55s5.8-3.7,10.3-3.7a11.23,11.23,0,0,1,8.64,3.38A12.3,12.3,0,0,1,318,70.07a17,17,0,0,1-2.08,8,63.45,63.45,0,0,1-8.09,10.79l-27.64,30.72v9.62h64a24.64,24.64,0,0,1-7.28-5.25A44.73,44.73,0,0,1,332.26,117.55Z"/><path class="cls-18" d="M359.44,128.87c-8.78,0-15.4-3-19.68-8.9-4.15-5.73-6.33-14.28-6.47-25.43V81.45c0-11.65,2.08-20.48,6.19-26.26,4.25-6,10.93-9,19.86-9s15.48,2.92,19.72,8.68c4.13,5.59,6.27,14.21,6.38,25.61V93.19c0,11.78-2.08,20.72-6.19,26.57C375,125.81,368.34,128.87,359.44,128.87Zm-.1-71.1c-4.39,0-7.48,1.57-9.44,4.81-2.12,3.48-3.22,9-3.29,16.5V94.73c0,8,1.13,13.85,3.37,17.51,2.09,3.44,5.18,5.11,9.46,5.11s7.25-1.57,9.27-4.78c2.16-3.44,3.31-9.08,3.41-16.76v-16c0-7.92-1.09-13.71-3.23-17.2C366.88,59.35,363.76,57.77,359.34,57.77Z"/><path class="cls-19" d="M355.57,182.82l15.29,26.31,15.42-26.31h7l-19.2,32.06v18.41h-6.39V214.74l-19.12-31.92Z"/><path class="cls-19" d="M431.63,227.61v5.68H397.37V182.82H431v5.69H403.77v16.35h23.67v5.33H403.77v17.42Z"/><path class="cls-19" d="M452.89,182.82h5.4l20.62,50.47h-6.83l-6-14.78H444.93L439,233.29H432.2Zm11.8,30.71-9.1-23.31-9.38,23.31Z"/><path class="cls-19" d="M482.81,233.29V182.82h21.61a13.75,13.75,0,0,1,6.15,1.39,15.46,15.46,0,0,1,4.84,3.7,17.67,17.67,0,0,1,3.16,5.19,15.78,15.78,0,0,1,1.14,5.86A17.26,17.26,0,0,1,519,204a15.92,15.92,0,0,1-2.13,4.45,14.61,14.61,0,0,1-3.34,3.41,13.12,13.12,0,0,1-4.37,2.06l12.22,19.33h-7.25l-11.51-18.12H489.21v18.12Zm6.4-23.81H504.5a7.52,7.52,0,0,0,3.59-.85,8.63,8.63,0,0,0,2.73-2.31,11.22,11.22,0,0,0,1.78-3.38,12.38,12.38,0,0,0,.64-4,10.8,10.8,0,0,0-.75-4,12,12,0,0,0-2-3.34,9,9,0,0,0-2.91-2.27,7.87,7.87,0,0,0-3.52-.82H489.21Z"/><path class="cls-19" d="M556.32,193.42A10.2,10.2,0,0,0,554,191.5a19.22,19.22,0,0,0-3.2-1.67,22.22,22.22,0,0,0-3.87-1.21,20.18,20.18,0,0,0-4.37-.46q-5.91,0-8.64,2.2a7.35,7.35,0,0,0-2.74,6,6.62,6.62,0,0,0,.79,3.41,6.38,6.38,0,0,0,2.45,2.31,18.43,18.43,0,0,0,4.16,1.67q2.48.72,5.9,1.5a63,63,0,0,1,7.07,2A20.69,20.69,0,0,1,557,210a11,11,0,0,1,3.41,4,12.79,12.79,0,0,1,1.18,5.76,13.18,13.18,0,0,1-1.43,6.29,12.53,12.53,0,0,1-3.87,4.41,16.7,16.7,0,0,1-5.79,2.55,30.25,30.25,0,0,1-7.25.82A33.49,33.49,0,0,1,532.18,232a30.89,30.89,0,0,1-9.49-5.3l3.06-5.4a17,17,0,0,0,3,2.42,24.5,24.5,0,0,0,4.12,2.17,30.22,30.22,0,0,0,5,1.56,25.32,25.32,0,0,0,5.58.6q5.4,0,8.39-1.91a7.1,7.1,0,0,0,2-9.35,8.2,8.2,0,0,0-2.81-2.53,21.91,21.91,0,0,0-4.58-1.88q-2.74-.81-6.22-1.67a62.91,62.91,0,0,1-6.75-2,18.09,18.09,0,0,1-4.87-2.56,9.55,9.55,0,0,1-2.95-3.63,11.88,11.88,0,0,1-1-5.11A14.45,14.45,0,0,1,526,191a13.43,13.43,0,0,1,3.77-4.69,16.41,16.41,0,0,1,5.76-2.88A28,28,0,0,1,552,184a25.85,25.85,0,0,1,7.32,4.2Z"/><path class="cls-19" d="M602.73,233.65a21.49,21.49,0,0,1-9.7-2.17,23.88,23.88,0,0,1-7.5-5.76,26.29,26.29,0,0,1-4.83-8.21,27,27,0,0,1-1.71-9.45,26.69,26.69,0,0,1,6.83-17.84,23.88,23.88,0,0,1,7.57-5.65,21.59,21.59,0,0,1,9.49-2.1,20.65,20.65,0,0,1,9.66,2.24,24.9,24.9,0,0,1,7.47,5.86,27,27,0,0,1,4.83,8.21,26.6,26.6,0,0,1,1.71,9.35,26.9,26.9,0,0,1-6.79,17.81,23.87,23.87,0,0,1-7.54,5.61A21.59,21.59,0,0,1,602.73,233.65Zm-17.27-25.59a22.5,22.5,0,0,0,1.24,7.43,20.72,20.72,0,0,0,3.52,6.36,17,17,0,0,0,5.48,4.41,15.36,15.36,0,0,0,7.1,1.63,15,15,0,0,0,7.26-1.74,17.69,17.69,0,0,0,5.43-4.55,20.32,20.32,0,0,0,3.42-6.36,22.82,22.82,0,0,0,1.17-7.18,22.51,22.51,0,0,0-1.25-7.43,19.63,19.63,0,0,0-3.55-6.33,17.82,17.82,0,0,0-5.47-4.37,15.05,15.05,0,0,0-7-1.63,15.27,15.27,0,0,0-7.25,1.7,17.48,17.48,0,0,0-5.43,4.48,20.22,20.22,0,0,0-3.45,6.33A22.28,22.28,0,0,0,585.46,208.06Z"/><path class="cls-19" d="M632.59,233.29V182.82h33.34v5.69H639v16.85h22.67v5.33H639v22.6Z"/><path class="cls-19" d="M355.57,182.82l15.29,26.31,15.42-26.31h7l-19.2,32.06v18.41h-6.39V214.74l-19.12-31.92Z"/><path class="cls-19" d="M431.63,227.61v5.68H397.37V182.82H431v5.69H403.77v16.35h23.67v5.33H403.77v17.42Z"/><path class="cls-19" d="M452.89,182.82h5.4l20.62,50.47h-6.83l-6-14.78H444.93L439,233.29H432.2Zm11.8,30.71-9.1-23.31-9.38,23.31Z"/><path class="cls-19" d="M482.81,233.29V182.82h21.61a13.75,13.75,0,0,1,6.15,1.39,15.46,15.46,0,0,1,4.84,3.7,17.67,17.67,0,0,1,3.16,5.19,15.78,15.78,0,0,1,1.14,5.86A17.26,17.26,0,0,1,519,204a15.92,15.92,0,0,1-2.13,4.45,14.61,14.61,0,0,1-3.34,3.41,13.12,13.12,0,0,1-4.37,2.06l12.22,19.33h-7.25l-11.51-18.12H489.21v18.12Zm6.4-23.81H504.5a7.52,7.52,0,0,0,3.59-.85,8.63,8.63,0,0,0,2.73-2.31,11.22,11.22,0,0,0,1.78-3.38,12.38,12.38,0,0,0,.64-4,10.8,10.8,0,0,0-.75-4,12,12,0,0,0-2-3.34,9,9,0,0,0-2.91-2.27,7.87,7.87,0,0,0-3.52-.82H489.21Z"/><path class="cls-19" d="M556.32,193.42A10.2,10.2,0,0,0,554,191.5a19.22,19.22,0,0,0-3.2-1.67,22.22,22.22,0,0,0-3.87-1.21,20.18,20.18,0,0,0-4.37-.46q-5.91,0-8.64,2.2a7.35,7.35,0,0,0-2.74,6,6.62,6.62,0,0,0,.79,3.41,6.38,6.38,0,0,0,2.45,2.31,18.43,18.43,0,0,0,4.16,1.67q2.48.72,5.9,1.5a63,63,0,0,1,7.07,2A20.69,20.69,0,0,1,557,210a11,11,0,0,1,3.41,4,12.79,12.79,0,0,1,1.18,5.76,13.18,13.18,0,0,1-1.43,6.29,12.53,12.53,0,0,1-3.87,4.41,16.7,16.7,0,0,1-5.79,2.55,30.25,30.25,0,0,1-7.25.82A33.49,33.49,0,0,1,532.18,232a30.89,30.89,0,0,1-9.49-5.3l3.06-5.4a17,17,0,0,0,3,2.42,24.5,24.5,0,0,0,4.12,2.17,30.22,30.22,0,0,0,5,1.56,25.32,25.32,0,0,0,5.58.6q5.4,0,8.39-1.91a7.1,7.1,0,0,0,2-9.35,8.2,8.2,0,0,0-2.81-2.53,21.91,21.91,0,0,0-4.58-1.88q-2.74-.81-6.22-1.67a62.91,62.91,0,0,1-6.75-2,18.09,18.09,0,0,1-4.87-2.56,9.55,9.55,0,0,1-2.95-3.63,11.88,11.88,0,0,1-1-5.11A14.45,14.45,0,0,1,526,191a13.43,13.43,0,0,1,3.77-4.69,16.41,16.41,0,0,1,5.76-2.88A28,28,0,0,1,552,184a25.85,25.85,0,0,1,7.32,4.2Z"/><path class="cls-19" d="M602.73,233.65a21.49,21.49,0,0,1-9.7-2.17,23.88,23.88,0,0,1-7.5-5.76,26.29,26.29,0,0,1-4.83-8.21,27,27,0,0,1-1.71-9.45,26.69,26.69,0,0,1,6.83-17.84,23.88,23.88,0,0,1,7.57-5.65,21.59,21.59,0,0,1,9.49-2.1,20.65,20.65,0,0,1,9.66,2.24,24.9,24.9,0,0,1,7.47,5.86,27,27,0,0,1,4.83,8.21,26.6,26.6,0,0,1,1.71,9.35,26.9,26.9,0,0,1-6.79,17.81,23.87,23.87,0,0,1-7.54,5.61A21.59,21.59,0,0,1,602.73,233.65Zm-17.27-25.59a22.5,22.5,0,0,0,1.24,7.43,20.72,20.72,0,0,0,3.52,6.36,17,17,0,0,0,5.48,4.41,15.36,15.36,0,0,0,7.1,1.63,15,15,0,0,0,7.26-1.74,17.69,17.69,0,0,0,5.43-4.55,20.32,20.32,0,0,0,3.42-6.36,22.82,22.82,0,0,0,1.17-7.18,22.51,22.51,0,0,0-1.25-7.43,19.63,19.63,0,0,0-3.55-6.33,17.82,17.82,0,0,0-5.47-4.37,15.05,15.05,0,0,0-7-1.63,15.27,15.27,0,0,0-7.25,1.7,17.48,17.48,0,0,0-5.43,4.48,20.22,20.22,0,0,0-3.45,6.33A22.28,22.28,0,0,0,585.46,208.06Z"/><path class="cls-19" d="M632.59,233.29V182.82h33.34v5.69H639v16.85h22.67v5.33H639v22.6Z"/><path class="cls-19" d="M355.57,182.82l15.29,26.31,15.42-26.31h7l-19.2,32.06v18.41h-6.39V214.74l-19.12-31.92Z"/><path class="cls-19" d="M431.63,227.61v5.68H397.37V182.82H431v5.69H403.77v16.35h23.67v5.33H403.77v17.42Z"/><path class="cls-19" d="M452.89,182.82h5.4l20.62,50.47h-6.83l-6-14.78H444.93L439,233.29H432.2Zm11.8,30.71-9.1-23.31-9.38,23.31Z"/><path class="cls-19" d="M482.81,233.29V182.82h21.61a13.75,13.75,0,0,1,6.15,1.39,15.46,15.46,0,0,1,4.84,3.7,17.67,17.67,0,0,1,3.16,5.19,15.78,15.78,0,0,1,1.14,5.86A17.26,17.26,0,0,1,519,204a15.92,15.92,0,0,1-2.13,4.45,14.61,14.61,0,0,1-3.34,3.41,13.12,13.12,0,0,1-4.37,2.06l12.22,19.33h-7.25l-11.51-18.12H489.21v18.12Zm6.4-23.81H504.5a7.52,7.52,0,0,0,3.59-.85,8.63,8.63,0,0,0,2.73-2.31,11.22,11.22,0,0,0,1.78-3.38,12.38,12.38,0,0,0,.64-4,10.8,10.8,0,0,0-.75-4,12,12,0,0,0-2-3.34,9,9,0,0,0-2.91-2.27,7.87,7.87,0,0,0-3.52-.82H489.21Z"/><path class="cls-19" d="M556.32,193.42A10.2,10.2,0,0,0,554,191.5a19.22,19.22,0,0,0-3.2-1.67,22.22,22.22,0,0,0-3.87-1.21,20.18,20.18,0,0,0-4.37-.46q-5.91,0-8.64,2.2a7.35,7.35,0,0,0-2.74,6,6.62,6.62,0,0,0,.79,3.41,6.38,6.38,0,0,0,2.45,2.31,18.43,18.43,0,0,0,4.16,1.67q2.48.72,5.9,1.5a63,63,0,0,1,7.07,2A20.69,20.69,0,0,1,557,210a11,11,0,0,1,3.41,4,12.79,12.79,0,0,1,1.18,5.76,13.18,13.18,0,0,1-1.43,6.29,12.53,12.53,0,0,1-3.87,4.41,16.7,16.7,0,0,1-5.79,2.55,30.25,30.25,0,0,1-7.25.82A33.49,33.49,0,0,1,532.18,232a30.89,30.89,0,0,1-9.49-5.3l3.06-5.4a17,17,0,0,0,3,2.42,24.5,24.5,0,0,0,4.12,2.17,30.22,30.22,0,0,0,5,1.56,25.32,25.32,0,0,0,5.58.6q5.4,0,8.39-1.91a7.1,7.1,0,0,0,2-9.35,8.2,8.2,0,0,0-2.81-2.53,21.91,21.91,0,0,0-4.58-1.88q-2.74-.81-6.22-1.67a62.91,62.91,0,0,1-6.75-2,18.09,18.09,0,0,1-4.87-2.56,9.55,9.55,0,0,1-2.95-3.63,11.88,11.88,0,0,1-1-5.11A14.45,14.45,0,0,1,526,191a13.43,13.43,0,0,1,3.77-4.69,16.41,16.41,0,0,1,5.76-2.88A28,28,0,0,1,552,184a25.85,25.85,0,0,1,7.32,4.2Z"/><path class="cls-19" d="M602.73,233.65a21.49,21.49,0,0,1-9.7-2.17,23.88,23.88,0,0,1-7.5-5.76,26.29,26.29,0,0,1-4.83-8.21,27,27,0,0,1-1.71-9.45,26.69,26.69,0,0,1,6.83-17.84,23.88,23.88,0,0,1,7.57-5.65,21.59,21.59,0,0,1,9.49-2.1,20.65,20.65,0,0,1,9.66,2.24,24.9,24.9,0,0,1,7.47,5.86,27,27,0,0,1,4.83,8.21,26.6,26.6,0,0,1,1.71,9.35,26.9,26.9,0,0,1-6.79,17.81,23.87,23.87,0,0,1-7.54,5.61A21.59,21.59,0,0,1,602.73,233.65Zm-17.27-25.59a22.5,22.5,0,0,0,1.24,7.43,20.72,20.72,0,0,0,3.52,6.36,17,17,0,0,0,5.48,4.41,15.36,15.36,0,0,0,7.1,1.63,15,15,0,0,0,7.26-1.74,17.69,17.69,0,0,0,5.43-4.55,20.32,20.32,0,0,0,3.42-6.36,22.82,22.82,0,0,0,1.17-7.18,22.51,22.51,0,0,0-1.25-7.43,19.63,19.63,0,0,0-3.55-6.33,17.82,17.82,0,0,0-5.47-4.37,15.05,15.05,0,0,0-7-1.63,15.27,15.27,0,0,0-7.25,1.7,17.48,17.48,0,0,0-5.43,4.48,20.22,20.22,0,0,0-3.45,6.33A22.28,22.28,0,0,0,585.46,208.06Z"/><path class="cls-19" d="M632.59,233.29V182.82h33.34v5.69H639v16.85h22.67v5.33H639v22.6Z"/><path class="cls-19" d="M468.26,257.43V480.15H417.35V257.43Z"/><polygon class="cls-19" points="110.52 357.59 50.66 259.61 0.25 259.61 0.25 269.35 50.66 351.95 50.66 351.92 64.69 374.95 66.82 378.44 66.82 378.44 107.69 445.49 113.36 445.49 138.75 403.83 110.53 357.58 110.52 357.59"/><polygon class="cls-19" points="170.38 259.61 121.63 339.41 149.84 385.64 170.38 351.92 170.38 480.15 220.79 480.15 220.79 259.61 170.38 259.61"/><polygon class="cls-19" points="0.25 305.71 0 479.97 50.91 479.97 50.66 388.31 0.25 305.71"/><polygon class="cls-19" points="0.25 305.62 0.25 480.06 50.66 480.06 50.66 388.22 50.66 388.22 0.25 305.62"/><path class="cls-19" d="M231.65,425.64l43.48-25.2C283,418.71,296.55,431,321.44,431c23.94,0,29.93-9.45,29.93-18,0-13.55-12.6-18.9-45.69-28-32.76-9.14-64.89-24.89-64.89-67.11,0-42.53,35.91-67.1,74-67.1,36.22,0,64.58,17.32,80.65,49.77l-42.54,24.9c-7.56-15.76-17.95-25.53-38.11-25.53-15.76,0-23.64,7.88-23.64,16.7,0,10.08,5.36,17,39.7,27.41,33.4,10.08,70.89,21.74,70.89,68.37,0,42.53-34,67.74-81.92,67.74C273.55,480.15,243.93,458.09,231.65,425.64Z"/><rect class="cls-19" x="547.71" y="319.08" width="50.91" height="161.07"/><rect class="cls-19" x="547.71" y="319.08" width="50.91" height="161.07"/><rect class="cls-19" x="490.44" y="257.43" width="165.45" height="49"/><path class="cls-19" d="M355.57,182.82l15.29,26.31,15.42-26.31h7l-19.2,32.06v18.41h-6.39V214.74l-19.12-31.92Z"/><path class="cls-19" d="M431.63,227.61v5.68H397.37V182.82H431v5.69H403.77v16.35h23.67v5.33H403.77v17.42Z"/><path class="cls-19" d="M452.89,182.82h5.4l20.62,50.47h-6.83l-6-14.78H444.93L439,233.29H432.2Zm11.8,30.71-9.1-23.31-9.38,23.31Z"/><path class="cls-19" d="M482.81,233.29V182.82h21.61a13.75,13.75,0,0,1,6.15,1.39,15.46,15.46,0,0,1,4.84,3.7,17.67,17.67,0,0,1,3.16,5.19,15.78,15.78,0,0,1,1.14,5.86A17.26,17.26,0,0,1,519,204a15.92,15.92,0,0,1-2.13,4.45,14.61,14.61,0,0,1-3.34,3.41,13.12,13.12,0,0,1-4.37,2.06l12.22,19.33h-7.25l-11.51-18.12H489.21v18.12Zm6.4-23.81H504.5a7.52,7.52,0,0,0,3.59-.85,8.63,8.63,0,0,0,2.73-2.31,11.22,11.22,0,0,0,1.78-3.38,12.38,12.38,0,0,0,.64-4,10.8,10.8,0,0,0-.75-4,12,12,0,0,0-2-3.34,9,9,0,0,0-2.91-2.27,7.87,7.87,0,0,0-3.52-.82H489.21Z"/><path class="cls-19" d="M556.32,193.42A10.2,10.2,0,0,0,554,191.5a19.22,19.22,0,0,0-3.2-1.67,22.22,22.22,0,0,0-3.87-1.21,20.18,20.18,0,0,0-4.37-.46q-5.91,0-8.64,2.2a7.35,7.35,0,0,0-2.74,6,6.62,6.62,0,0,0,.79,3.41,6.38,6.38,0,0,0,2.45,2.31,18.43,18.43,0,0,0,4.16,1.67q2.48.72,5.9,1.5a63,63,0,0,1,7.07,2A20.69,20.69,0,0,1,557,210a11,11,0,0,1,3.41,4,12.79,12.79,0,0,1,1.18,5.76,13.18,13.18,0,0,1-1.43,6.29,12.53,12.53,0,0,1-3.87,4.41,16.7,16.7,0,0,1-5.79,2.55,30.25,30.25,0,0,1-7.25.82A33.49,33.49,0,0,1,532.18,232a30.89,30.89,0,0,1-9.49-5.3l3.06-5.4a17,17,0,0,0,3,2.42,24.5,24.5,0,0,0,4.12,2.17,30.22,30.22,0,0,0,5,1.56,25.32,25.32,0,0,0,5.58.6q5.4,0,8.39-1.91a7.1,7.1,0,0,0,2-9.35,8.2,8.2,0,0,0-2.81-2.53,21.91,21.91,0,0,0-4.58-1.88q-2.74-.81-6.22-1.67a62.91,62.91,0,0,1-6.75-2,18.09,18.09,0,0,1-4.87-2.56,9.55,9.55,0,0,1-2.95-3.63,11.88,11.88,0,0,1-1-5.11A14.45,14.45,0,0,1,526,191a13.43,13.43,0,0,1,3.77-4.69,16.41,16.41,0,0,1,5.76-2.88A28,28,0,0,1,552,184a25.85,25.85,0,0,1,7.32,4.2Z"/><path class="cls-19" d="M602.73,233.65a21.49,21.49,0,0,1-9.7-2.17,23.88,23.88,0,0,1-7.5-5.76,26.29,26.29,0,0,1-4.83-8.21,27,27,0,0,1-1.71-9.45,26.69,26.69,0,0,1,6.83-17.84,23.88,23.88,0,0,1,7.57-5.65,21.59,21.59,0,0,1,9.49-2.1,20.65,20.65,0,0,1,9.66,2.24,24.9,24.9,0,0,1,7.47,5.86,27,27,0,0,1,4.83,8.21,26.6,26.6,0,0,1,1.71,9.35,26.9,26.9,0,0,1-6.79,17.81,23.87,23.87,0,0,1-7.54,5.61A21.59,21.59,0,0,1,602.73,233.65Zm-17.27-25.59a22.5,22.5,0,0,0,1.24,7.43,20.72,20.72,0,0,0,3.52,6.36,17,17,0,0,0,5.48,4.41,15.36,15.36,0,0,0,7.1,1.63,15,15,0,0,0,7.26-1.74,17.69,17.69,0,0,0,5.43-4.55,20.32,20.32,0,0,0,3.42-6.36,22.82,22.82,0,0,0,1.17-7.18,22.51,22.51,0,0,0-1.25-7.43,19.63,19.63,0,0,0-3.55-6.33,17.82,17.82,0,0,0-5.47-4.37,15.05,15.05,0,0,0-7-1.63,15.27,15.27,0,0,0-7.25,1.7,17.48,17.48,0,0,0-5.43,4.48,20.22,20.22,0,0,0-3.45,6.33A22.28,22.28,0,0,0,585.46,208.06Z"/><path class="cls-19" d="M632.59,233.29V182.82h33.34v5.69H639v16.85h22.67v5.33H639v22.6Z"/><path class="cls-19" d="M355.57,182.82l15.29,26.31,15.42-26.31h7l-19.2,32.06v18.41h-6.39V214.74l-19.12-31.92Z"/><path class="cls-19" d="M431.63,227.61v5.68H397.37V182.82H431v5.69H403.77v16.35h23.67v5.33H403.77v17.42Z"/><path class="cls-19" d="M452.89,182.82h5.4l20.62,50.47h-6.83l-6-14.78H444.93L439,233.29H432.2Zm11.8,30.71-9.1-23.31-9.38,23.31Z"/><path class="cls-19" d="M482.81,233.29V182.82h21.61a13.75,13.75,0,0,1,6.15,1.39,15.46,15.46,0,0,1,4.84,3.7,17.67,17.67,0,0,1,3.16,5.19,15.78,15.78,0,0,1,1.14,5.86A17.26,17.26,0,0,1,519,204a15.92,15.92,0,0,1-2.13,4.45,14.61,14.61,0,0,1-3.34,3.41,13.12,13.12,0,0,1-4.37,2.06l12.22,19.33h-7.25l-11.51-18.12H489.21v18.12Zm6.4-23.81H504.5a7.52,7.52,0,0,0,3.59-.85,8.63,8.63,0,0,0,2.73-2.31,11.22,11.22,0,0,0,1.78-3.38,12.38,12.38,0,0,0,.64-4,10.8,10.8,0,0,0-.75-4,12,12,0,0,0-2-3.34,9,9,0,0,0-2.91-2.27,7.87,7.87,0,0,0-3.52-.82H489.21Z"/><path class="cls-19" d="M556.32,193.42A10.2,10.2,0,0,0,554,191.5a19.22,19.22,0,0,0-3.2-1.67,22.22,22.22,0,0,0-3.87-1.21,20.18,20.18,0,0,0-4.37-.46q-5.91,0-8.64,2.2a7.35,7.35,0,0,0-2.74,6,6.62,6.62,0,0,0,.79,3.41,6.38,6.38,0,0,0,2.45,2.31,18.43,18.43,0,0,0,4.16,1.67q2.48.72,5.9,1.5a63,63,0,0,1,7.07,2A20.69,20.69,0,0,1,557,210a11,11,0,0,1,3.41,4,12.79,12.79,0,0,1,1.18,5.76,13.18,13.18,0,0,1-1.43,6.29,12.53,12.53,0,0,1-3.87,4.41,16.7,16.7,0,0,1-5.79,2.55,30.25,30.25,0,0,1-7.25.82A33.49,33.49,0,0,1,532.18,232a30.89,30.89,0,0,1-9.49-5.3l3.06-5.4a17,17,0,0,0,3,2.42,24.5,24.5,0,0,0,4.12,2.17,30.22,30.22,0,0,0,5,1.56,25.32,25.32,0,0,0,5.58.6q5.4,0,8.39-1.91a7.1,7.1,0,0,0,2-9.35,8.2,8.2,0,0,0-2.81-2.53,21.91,21.91,0,0,0-4.58-1.88q-2.74-.81-6.22-1.67a62.91,62.91,0,0,1-6.75-2,18.09,18.09,0,0,1-4.87-2.56,9.55,9.55,0,0,1-2.95-3.63,11.88,11.88,0,0,1-1-5.11A14.45,14.45,0,0,1,526,191a13.43,13.43,0,0,1,3.77-4.69,16.41,16.41,0,0,1,5.76-2.88A28,28,0,0,1,552,184a25.85,25.85,0,0,1,7.32,4.2Z"/><path class="cls-19" d="M602.73,233.65a21.49,21.49,0,0,1-9.7-2.17,23.88,23.88,0,0,1-7.5-5.76,26.29,26.29,0,0,1-4.83-8.21,27,27,0,0,1-1.71-9.45,26.69,26.69,0,0,1,6.83-17.84,23.88,23.88,0,0,1,7.57-5.65,21.59,21.59,0,0,1,9.49-2.1,20.65,20.65,0,0,1,9.66,2.24,24.9,24.9,0,0,1,7.47,5.86,27,27,0,0,1,4.83,8.21,26.6,26.6,0,0,1,1.71,9.35,26.9,26.9,0,0,1-6.79,17.81,23.87,23.87,0,0,1-7.54,5.61A21.59,21.59,0,0,1,602.73,233.65Zm-17.27-25.59a22.5,22.5,0,0,0,1.24,7.43,20.72,20.72,0,0,0,3.52,6.36,17,17,0,0,0,5.48,4.41,15.36,15.36,0,0,0,7.1,1.63,15,15,0,0,0,7.26-1.74,17.69,17.69,0,0,0,5.43-4.55,20.32,20.32,0,0,0,3.42-6.36,22.82,22.82,0,0,0,1.17-7.18,22.51,22.51,0,0,0-1.25-7.43,19.63,19.63,0,0,0-3.55-6.33,17.82,17.82,0,0,0-5.47-4.37,15.05,15.05,0,0,0-7-1.63,15.27,15.27,0,0,0-7.25,1.7,17.48,17.48,0,0,0-5.43,4.48,20.22,20.22,0,0,0-3.45,6.33A22.28,22.28,0,0,0,585.46,208.06Z"/><path class="cls-19" d="M632.59,233.29V182.82h33.34v5.69H639v16.85h22.67v5.33H639v22.6Z"/><path class="cls-19" d="M355.57,182.82l15.29,26.31,15.42-26.31h7l-19.2,32.06v18.41h-6.39V214.74l-19.12-31.92Z"/><path class="cls-19" d="M431.63,227.61v5.68H397.37V182.82H431v5.69H403.77v16.35h23.67v5.33H403.77v17.42Z"/><path class="cls-19" d="M452.89,182.82h5.4l20.62,50.47h-6.83l-6-14.78H444.93L439,233.29H432.2Zm11.8,30.71-9.1-23.31-9.38,23.31Z"/><path class="cls-19" d="M482.81,233.29V182.82h21.61a13.75,13.75,0,0,1,6.15,1.39,15.46,15.46,0,0,1,4.84,3.7,17.67,17.67,0,0,1,3.16,5.19,15.78,15.78,0,0,1,1.14,5.86A17.26,17.26,0,0,1,519,204a15.92,15.92,0,0,1-2.13,4.45,14.61,14.61,0,0,1-3.34,3.41,13.12,13.12,0,0,1-4.37,2.06l12.22,19.33h-7.25l-11.51-18.12H489.21v18.12Zm6.4-23.81H504.5a7.52,7.52,0,0,0,3.59-.85,8.63,8.63,0,0,0,2.73-2.31,11.22,11.22,0,0,0,1.78-3.38,12.38,12.38,0,0,0,.64-4,10.8,10.8,0,0,0-.75-4,12,12,0,0,0-2-3.34,9,9,0,0,0-2.91-2.27,7.87,7.87,0,0,0-3.52-.82H489.21Z"/><path class="cls-19" d="M556.32,193.42A10.2,10.2,0,0,0,554,191.5a19.22,19.22,0,0,0-3.2-1.67,22.22,22.22,0,0,0-3.87-1.21,20.18,20.18,0,0,0-4.37-.46q-5.91,0-8.64,2.2a7.35,7.35,0,0,0-2.74,6,6.62,6.62,0,0,0,.79,3.41,6.38,6.38,0,0,0,2.45,2.31,18.43,18.43,0,0,0,4.16,1.67q2.48.72,5.9,1.5a63,63,0,0,1,7.07,2A20.69,20.69,0,0,1,557,210a11,11,0,0,1,3.41,4,12.79,12.79,0,0,1,1.18,5.76,13.18,13.18,0,0,1-1.43,6.29,12.53,12.53,0,0,1-3.87,4.41,16.7,16.7,0,0,1-5.79,2.55,30.25,30.25,0,0,1-7.25.82A33.49,33.49,0,0,1,532.18,232a30.89,30.89,0,0,1-9.49-5.3l3.06-5.4a17,17,0,0,0,3,2.42,24.5,24.5,0,0,0,4.12,2.17,30.22,30.22,0,0,0,5,1.56,25.32,25.32,0,0,0,5.58.6q5.4,0,8.39-1.91a7.1,7.1,0,0,0,2-9.35,8.2,8.2,0,0,0-2.81-2.53,21.91,21.91,0,0,0-4.58-1.88q-2.74-.81-6.22-1.67a62.91,62.91,0,0,1-6.75-2,18.09,18.09,0,0,1-4.87-2.56,9.55,9.55,0,0,1-2.95-3.63,11.88,11.88,0,0,1-1-5.11A14.45,14.45,0,0,1,526,191a13.43,13.43,0,0,1,3.77-4.69,16.41,16.41,0,0,1,5.76-2.88A28,28,0,0,1,552,184a25.85,25.85,0,0,1,7.32,4.2Z"/><path class="cls-19" d="M602.73,233.65a21.49,21.49,0,0,1-9.7-2.17,23.88,23.88,0,0,1-7.5-5.76,26.29,26.29,0,0,1-4.83-8.21,27,27,0,0,1-1.71-9.45,26.69,26.69,0,0,1,6.83-17.84,23.88,23.88,0,0,1,7.57-5.65,21.59,21.59,0,0,1,9.49-2.1,20.65,20.65,0,0,1,9.66,2.24,24.9,24.9,0,0,1,7.47,5.86,27,27,0,0,1,4.83,8.21,26.6,26.6,0,0,1,1.71,9.35,26.9,26.9,0,0,1-6.79,17.81,23.87,23.87,0,0,1-7.54,5.61A21.59,21.59,0,0,1,602.73,233.65Zm-17.27-25.59a22.5,22.5,0,0,0,1.24,7.43,20.72,20.72,0,0,0,3.52,6.36,17,17,0,0,0,5.48,4.41,15.36,15.36,0,0,0,7.1,1.63,15,15,0,0,0,7.26-1.74,17.69,17.69,0,0,0,5.43-4.55,20.32,20.32,0,0,0,3.42-6.36,22.82,22.82,0,0,0,1.17-7.18,22.51,22.51,0,0,0-1.25-7.43,19.63,19.63,0,0,0-3.55-6.33,17.82,17.82,0,0,0-5.47-4.37,15.05,15.05,0,0,0-7-1.63,15.27,15.27,0,0,0-7.25,1.7,17.48,17.48,0,0,0-5.43,4.48,20.22,20.22,0,0,0-3.45,6.33A22.28,22.28,0,0,0,585.46,208.06Z"/><path class="cls-19" d="M632.59,233.29V182.82h33.34v5.69H639v16.85h22.67v5.33H639v22.6Z"/><path class="cls-19" d="M468.26,257.43V480.15H417.35V257.43Z"/><polygon class="cls-19" points="110.52 357.59 50.66 259.61 0.25 259.61 0.25 269.35 50.66 351.95 50.66 351.92 64.69 374.95 66.82 378.44 66.82 378.44 107.69 445.49 113.36 445.49 138.75 403.83 110.53 357.58 110.52 357.59"/><polygon class="cls-19" points="170.38 259.61 121.63 339.41 149.84 385.64 170.38 351.92 170.38 480.15 220.79 480.15 220.79 259.61 170.38 259.61"/><polygon class="cls-19" points="0.25 305.71 0 479.97 50.91 479.97 50.66 388.31 0.25 305.71"/><polygon class="cls-19" points="0.25 305.62 0.25 480.06 50.66 480.06 50.66 388.22 50.66 388.22 0.25 305.62"/><path class="cls-19" d="M231.65,425.64l43.48-25.2C283,418.71,296.55,431,321.44,431c23.94,0,29.93-9.45,29.93-18,0-13.55-12.6-18.9-45.69-28-32.76-9.14-64.89-24.89-64.89-67.11,0-42.53,35.91-67.1,74-67.1,36.22,0,64.58,17.32,80.65,49.77l-42.54,24.9c-7.56-15.76-17.95-25.53-38.11-25.53-15.76,0-23.64,7.88-23.64,16.7,0,10.08,5.36,17,39.7,27.41,33.4,10.08,70.89,21.74,70.89,68.37,0,42.53-34,67.74-81.92,67.74C273.55,480.15,243.93,458.09,231.65,425.64Z"/><rect class="cls-19" x="547.71" y="319.08" width="50.91" height="161.07"/><rect class="cls-19" x="547.71" y="319.08" width="50.91" height="161.07"/><rect class="cls-19" x="490.44" y="257.43" width="165.45" height="49"/><path class="cls-19" d="M355.57,182.82l15.29,26.31,15.42-26.31h7l-19.2,32.06v18.41h-6.39V214.74l-19.12-31.92Z"/><path class="cls-19" d="M431.63,227.61v5.68H397.37V182.82H431v5.69H403.77v16.35h23.67v5.33H403.77v17.42Z"/><path class="cls-19" d="M452.89,182.82h5.4l20.62,50.47h-6.83l-6-14.78H444.93L439,233.29H432.2Zm11.8,30.71-9.1-23.31-9.38,23.31Z"/><path class="cls-19" d="M482.81,233.29V182.82h21.61a13.75,13.75,0,0,1,6.15,1.39,15.46,15.46,0,0,1,4.84,3.7,17.67,17.67,0,0,1,3.16,5.19,15.78,15.78,0,0,1,1.14,5.86A17.26,17.26,0,0,1,519,204a15.92,15.92,0,0,1-2.13,4.45,14.61,14.61,0,0,1-3.34,3.41,13.12,13.12,0,0,1-4.37,2.06l12.22,19.33h-7.25l-11.51-18.12H489.21v18.12Zm6.4-23.81H504.5a7.52,7.52,0,0,0,3.59-.85,8.63,8.63,0,0,0,2.73-2.31,11.22,11.22,0,0,0,1.78-3.38,12.38,12.38,0,0,0,.64-4,10.8,10.8,0,0,0-.75-4,12,12,0,0,0-2-3.34,9,9,0,0,0-2.91-2.27,7.87,7.87,0,0,0-3.52-.82H489.21Z"/><path class="cls-19" d="M556.32,193.42A10.2,10.2,0,0,0,554,191.5a19.22,19.22,0,0,0-3.2-1.67,22.22,22.22,0,0,0-3.87-1.21,20.18,20.18,0,0,0-4.37-.46q-5.91,0-8.64,2.2a7.35,7.35,0,0,0-2.74,6,6.62,6.62,0,0,0,.79,3.41,6.38,6.38,0,0,0,2.45,2.31,18.43,18.43,0,0,0,4.16,1.67q2.48.72,5.9,1.5a63,63,0,0,1,7.07,2A20.69,20.69,0,0,1,557,210a11,11,0,0,1,3.41,4,12.79,12.79,0,0,1,1.18,5.76,13.18,13.18,0,0,1-1.43,6.29,12.53,12.53,0,0,1-3.87,4.41,16.7,16.7,0,0,1-5.79,2.55,30.25,30.25,0,0,1-7.25.82A33.49,33.49,0,0,1,532.18,232a30.89,30.89,0,0,1-9.49-5.3l3.06-5.4a17,17,0,0,0,3,2.42,24.5,24.5,0,0,0,4.12,2.17,30.22,30.22,0,0,0,5,1.56,25.32,25.32,0,0,0,5.58.6q5.4,0,8.39-1.91a7.1,7.1,0,0,0,2-9.35,8.2,8.2,0,0,0-2.81-2.53,21.91,21.91,0,0,0-4.58-1.88q-2.74-.81-6.22-1.67a62.91,62.91,0,0,1-6.75-2,18.09,18.09,0,0,1-4.87-2.56,9.55,9.55,0,0,1-2.95-3.63,11.88,11.88,0,0,1-1-5.11A14.45,14.45,0,0,1,526,191a13.43,13.43,0,0,1,3.77-4.69,16.41,16.41,0,0,1,5.76-2.88A28,28,0,0,1,552,184a25.85,25.85,0,0,1,7.32,4.2Z"/><path class="cls-19" d="M602.73,233.65a21.49,21.49,0,0,1-9.7-2.17,23.88,23.88,0,0,1-7.5-5.76,26.29,26.29,0,0,1-4.83-8.21,27,27,0,0,1-1.71-9.45,26.69,26.69,0,0,1,6.83-17.84,23.88,23.88,0,0,1,7.57-5.65,21.59,21.59,0,0,1,9.49-2.1,20.65,20.65,0,0,1,9.66,2.24,24.9,24.9,0,0,1,7.47,5.86,27,27,0,0,1,4.83,8.21,26.6,26.6,0,0,1,1.71,9.35,26.9,26.9,0,0,1-6.79,17.81,23.87,23.87,0,0,1-7.54,5.61A21.59,21.59,0,0,1,602.73,233.65Zm-17.27-25.59a22.5,22.5,0,0,0,1.24,7.43,20.72,20.72,0,0,0,3.52,6.36,17,17,0,0,0,5.48,4.41,15.36,15.36,0,0,0,7.1,1.63,15,15,0,0,0,7.26-1.74,17.69,17.69,0,0,0,5.43-4.55,20.32,20.32,0,0,0,3.42-6.36,22.82,22.82,0,0,0,1.17-7.18,22.51,22.51,0,0,0-1.25-7.43,19.63,19.63,0,0,0-3.55-6.33,17.82,17.82,0,0,0-5.47-4.37,15.05,15.05,0,0,0-7-1.63,15.27,15.27,0,0,0-7.25,1.7,17.48,17.48,0,0,0-5.43,4.48,20.22,20.22,0,0,0-3.45,6.33A22.28,22.28,0,0,0,585.46,208.06Z"/><path class="cls-19" d="M632.59,233.29V182.82h33.34v5.69H639v16.85h22.67v5.33H639v22.6Z"/><path class="cls-19" d="M355.57,182.82l15.29,26.31,15.42-26.31h7l-19.2,32.06v18.41h-6.39V214.74l-19.12-31.92Z"/><path class="cls-19" d="M431.63,227.61v5.68H397.37V182.82H431v5.69H403.77v16.35h23.67v5.33H403.77v17.42Z"/><path class="cls-19" d="M452.89,182.82h5.4l20.62,50.47h-6.83l-6-14.78H444.93L439,233.29H432.2Zm11.8,30.71-9.1-23.31-9.38,23.31Z"/><path class="cls-19" d="M482.81,233.29V182.82h21.61a13.75,13.75,0,0,1,6.15,1.39,15.46,15.46,0,0,1,4.84,3.7,17.67,17.67,0,0,1,3.16,5.19,15.78,15.78,0,0,1,1.14,5.86A17.26,17.26,0,0,1,519,204a15.92,15.92,0,0,1-2.13,4.45,14.61,14.61,0,0,1-3.34,3.41,13.12,13.12,0,0,1-4.37,2.06l12.22,19.33h-7.25l-11.51-18.12H489.21v18.12Zm6.4-23.81H504.5a7.52,7.52,0,0,0,3.59-.85,8.63,8.63,0,0,0,2.73-2.31,11.22,11.22,0,0,0,1.78-3.38,12.38,12.38,0,0,0,.64-4,10.8,10.8,0,0,0-.75-4,12,12,0,0,0-2-3.34,9,9,0,0,0-2.91-2.27,7.87,7.87,0,0,0-3.52-.82H489.21Z"/><path class="cls-19" d="M556.32,193.42A10.2,10.2,0,0,0,554,191.5a19.22,19.22,0,0,0-3.2-1.67,22.22,22.22,0,0,0-3.87-1.21,20.18,20.18,0,0,0-4.37-.46q-5.91,0-8.64,2.2a7.35,7.35,0,0,0-2.74,6,6.62,6.62,0,0,0,.79,3.41,6.38,6.38,0,0,0,2.45,2.31,18.43,18.43,0,0,0,4.16,1.67q2.48.72,5.9,1.5a63,63,0,0,1,7.07,2A20.69,20.69,0,0,1,557,210a11,11,0,0,1,3.41,4,12.79,12.79,0,0,1,1.18,5.76,13.18,13.18,0,0,1-1.43,6.29,12.53,12.53,0,0,1-3.87,4.41,16.7,16.7,0,0,1-5.79,2.55,30.25,30.25,0,0,1-7.25.82A33.49,33.49,0,0,1,532.18,232a30.89,30.89,0,0,1-9.49-5.3l3.06-5.4a17,17,0,0,0,3,2.42,24.5,24.5,0,0,0,4.12,2.17,30.22,30.22,0,0,0,5,1.56,25.32,25.32,0,0,0,5.58.6q5.4,0,8.39-1.91a7.1,7.1,0,0,0,2-9.35,8.2,8.2,0,0,0-2.81-2.53,21.91,21.91,0,0,0-4.58-1.88q-2.74-.81-6.22-1.67a62.91,62.91,0,0,1-6.75-2,18.09,18.09,0,0,1-4.87-2.56,9.55,9.55,0,0,1-2.95-3.63,11.88,11.88,0,0,1-1-5.11A14.45,14.45,0,0,1,526,191a13.43,13.43,0,0,1,3.77-4.69,16.41,16.41,0,0,1,5.76-2.88A28,28,0,0,1,552,184a25.85,25.85,0,0,1,7.32,4.2Z"/><path class="cls-19" d="M602.73,233.65a21.49,21.49,0,0,1-9.7-2.17,23.88,23.88,0,0,1-7.5-5.76,26.29,26.29,0,0,1-4.83-8.21,27,27,0,0,1-1.71-9.45,26.69,26.69,0,0,1,6.83-17.84,23.88,23.88,0,0,1,7.57-5.65,21.59,21.59,0,0,1,9.49-2.1,20.65,20.65,0,0,1,9.66,2.24,24.9,24.9,0,0,1,7.47,5.86,27,27,0,0,1,4.83,8.21,26.6,26.6,0,0,1,1.71,9.35,26.9,26.9,0,0,1-6.79,17.81,23.87,23.87,0,0,1-7.54,5.61A21.59,21.59,0,0,1,602.73,233.65Zm-17.27-25.59a22.5,22.5,0,0,0,1.24,7.43,20.72,20.72,0,0,0,3.52,6.36,17,17,0,0,0,5.48,4.41,15.36,15.36,0,0,0,7.1,1.63,15,15,0,0,0,7.26-1.74,17.69,17.69,0,0,0,5.43-4.55,20.32,20.32,0,0,0,3.42-6.36,22.82,22.82,0,0,0,1.17-7.18,22.51,22.51,0,0,0-1.25-7.43,19.63,19.63,0,0,0-3.55-6.33,17.82,17.82,0,0,0-5.47-4.37,15.05,15.05,0,0,0-7-1.63,15.27,15.27,0,0,0-7.25,1.7,17.48,17.48,0,0,0-5.43,4.48,20.22,20.22,0,0,0-3.45,6.33A22.28,22.28,0,0,0,585.46,208.06Z"/><path class="cls-19" d="M632.59,233.29V182.82h33.34v5.69H639v16.85h22.67v5.33H639v22.6Z"/><path class="cls-19" d="M355.57,182.82l15.29,26.31,15.42-26.31h7l-19.2,32.06v18.41h-6.39V214.74l-19.12-31.92Z"/><path class="cls-19" d="M431.63,227.61v5.68H397.37V182.82H431v5.69H403.77v16.35h23.67v5.33H403.77v17.42Z"/><path class="cls-19" d="M452.89,182.82h5.4l20.62,50.47h-6.83l-6-14.78H444.93L439,233.29H432.2Zm11.8,30.71-9.1-23.31-9.38,23.31Z"/><path class="cls-19" d="M482.81,233.29V182.82h21.61a13.75,13.75,0,0,1,6.15,1.39,15.46,15.46,0,0,1,4.84,3.7,17.67,17.67,0,0,1,3.16,5.19,15.78,15.78,0,0,1,1.14,5.86A17.26,17.26,0,0,1,519,204a15.92,15.92,0,0,1-2.13,4.45,14.61,14.61,0,0,1-3.34,3.41,13.12,13.12,0,0,1-4.37,2.06l12.22,19.33h-7.25l-11.51-18.12H489.21v18.12Zm6.4-23.81H504.5a7.52,7.52,0,0,0,3.59-.85,8.63,8.63,0,0,0,2.73-2.31,11.22,11.22,0,0,0,1.78-3.38,12.38,12.38,0,0,0,.64-4,10.8,10.8,0,0,0-.75-4,12,12,0,0,0-2-3.34,9,9,0,0,0-2.91-2.27,7.87,7.87,0,0,0-3.52-.82H489.21Z"/><path class="cls-19" d="M556.32,193.42A10.2,10.2,0,0,0,554,191.5a19.22,19.22,0,0,0-3.2-1.67,22.22,22.22,0,0,0-3.87-1.21,20.18,20.18,0,0,0-4.37-.46q-5.91,0-8.64,2.2a7.35,7.35,0,0,0-2.74,6,6.62,6.62,0,0,0,.79,3.41,6.38,6.38,0,0,0,2.45,2.31,18.43,18.43,0,0,0,4.16,1.67q2.48.72,5.9,1.5a63,63,0,0,1,7.07,2A20.69,20.69,0,0,1,557,210a11,11,0,0,1,3.41,4,12.79,12.79,0,0,1,1.18,5.76,13.18,13.18,0,0,1-1.43,6.29,12.53,12.53,0,0,1-3.87,4.41,16.7,16.7,0,0,1-5.79,2.55,30.25,30.25,0,0,1-7.25.82A33.49,33.49,0,0,1,532.18,232a30.89,30.89,0,0,1-9.49-5.3l3.06-5.4a17,17,0,0,0,3,2.42,24.5,24.5,0,0,0,4.12,2.17,30.22,30.22,0,0,0,5,1.56,25.32,25.32,0,0,0,5.58.6q5.4,0,8.39-1.91a7.1,7.1,0,0,0,2-9.35,8.2,8.2,0,0,0-2.81-2.53,21.91,21.91,0,0,0-4.58-1.88q-2.74-.81-6.22-1.67a62.91,62.91,0,0,1-6.75-2,18.09,18.09,0,0,1-4.87-2.56,9.55,9.55,0,0,1-2.95-3.63,11.88,11.88,0,0,1-1-5.11A14.45,14.45,0,0,1,526,191a13.43,13.43,0,0,1,3.77-4.69,16.41,16.41,0,0,1,5.76-2.88A28,28,0,0,1,552,184a25.85,25.85,0,0,1,7.32,4.2Z"/><path class="cls-19" d="M602.73,233.65a21.49,21.49,0,0,1-9.7-2.17,23.88,23.88,0,0,1-7.5-5.76,26.29,26.29,0,0,1-4.83-8.21,27,27,0,0,1-1.71-9.45,26.69,26.69,0,0,1,6.83-17.84,23.88,23.88,0,0,1,7.57-5.65,21.59,21.59,0,0,1,9.49-2.1,20.65,20.65,0,0,1,9.66,2.24,24.9,24.9,0,0,1,7.47,5.86,27,27,0,0,1,4.83,8.21,26.6,26.6,0,0,1,1.71,9.35,26.9,26.9,0,0,1-6.79,17.81,23.87,23.87,0,0,1-7.54,5.61A21.59,21.59,0,0,1,602.73,233.65Zm-17.27-25.59a22.5,22.5,0,0,0,1.24,7.43,20.72,20.72,0,0,0,3.52,6.36,17,17,0,0,0,5.48,4.41,15.36,15.36,0,0,0,7.1,1.63,15,15,0,0,0,7.26-1.74,17.69,17.69,0,0,0,5.43-4.55,20.32,20.32,0,0,0,3.42-6.36,22.82,22.82,0,0,0,1.17-7.18,22.51,22.51,0,0,0-1.25-7.43,19.63,19.63,0,0,0-3.55-6.33,17.82,17.82,0,0,0-5.47-4.37,15.05,15.05,0,0,0-7-1.63,15.27,15.27,0,0,0-7.25,1.7,17.48,17.48,0,0,0-5.43,4.48,20.22,20.22,0,0,0-3.45,6.33A22.28,22.28,0,0,0,585.46,208.06Z"/><path class="cls-19" d="M632.59,233.29V182.82h33.34v5.69H639v16.85h22.67v5.33H639v22.6Z"/><path class="cls-19" d="M468.26,257.43V480.15H417.35V257.43Z"/><polygon class="cls-19" points="110.52 357.59 50.66 259.61 0.25 259.61 0.25 269.35 50.66 351.95 50.66 351.92 64.69 374.95 66.82 378.44 66.82 378.44 107.69 445.49 113.36 445.49 138.75 403.83 110.53 357.58 110.52 357.59"/><polygon class="cls-19" points="170.38 259.61 121.63 339.41 149.84 385.64 170.38 351.92 170.38 480.15 220.79 480.15 220.79 259.61 170.38 259.61"/><polygon class="cls-19" points="0.25 305.71 0 479.97 50.91 479.97 50.66 388.31 0.25 305.71"/><polygon class="cls-19" points="0.25 305.62 0.25 480.06 50.66 480.06 50.66 388.22 50.66 388.22 0.25 305.62"/><path class="cls-19" d="M231.65,425.64l43.48-25.2C283,418.71,296.55,431,321.44,431c23.94,0,29.93-9.45,29.93-18,0-13.55-12.6-18.9-45.69-28-32.76-9.14-64.89-24.89-64.89-67.11,0-42.53,35.91-67.1,74-67.1,36.22,0,64.58,17.32,80.65,49.77l-42.54,24.9c-7.56-15.76-17.95-25.53-38.11-25.53-15.76,0-23.64,7.88-23.64,16.7,0,10.08,5.36,17,39.7,27.41,33.4,10.08,70.89,21.74,70.89,68.37,0,42.53-34,67.74-81.92,67.74C273.55,480.15,243.93,458.09,231.65,425.64Z"/><rect class="cls-19" x="547.71" y="319.08" width="50.91" height="161.07"/><rect class="cls-19" x="547.71" y="319.08" width="50.91" height="161.07"/><rect class="cls-19" x="490.44" y="257.43" width="165.45" height="49"/><path class="cls-19" d="M759.4,300.7l-2.35-12.17-.3-1.52-.36-1.5-.74-3-1.48-6c-.9-4-2.16-8-3.33-11.92l-1.78-5.93c-.27-1-.64-2-1-2.93l-1-2.92L745,247l-1-2.91c-.33-1-.76-1.92-1.14-2.88l-4.69-11.43-5.24-11.19c-.44-.93-.86-1.87-1.32-2.79L730.12,213l-2.89-5.45a304.15,304.15,0,0,0-59.61-77.89l-4.5-4.18c-1.51-1.39-3-2.81-4.57-4.11l-9.38-7.92L639.43,106c-.82-.61-1.61-1.26-2.45-1.84l-2.52-1.75-5.05-3.49a300.52,300.52,0,0,0-88.29-41.36L535.23,56l-3-.8c-1-.27-2-.54-3-.74l-11.93-2.61-1.49-.33-1.5-.26-3-.5-6-1-3-.51L500.85,49l-1.51-.18-6.06-.7-6.06-.7-1.51-.17c-.51,0-1-.07-1.52-.11l-3-.2-6.08-.39-3-.2c-1-.06-2-.14-3-.13L456.81,46c-2-.06-4.06,0-6.09,0s-4.06.09-6.09.2q-14.75.6-29.38,2.67A69.56,69.56,0,0,0,409.69,39a88,88,0,0,0-11.5-13.67A87.95,87.95,0,0,0,334.25,0a89.07,89.07,0,0,1,17.16,2.54,87,87,0,0,1,16.25,5.71,87.9,87.9,0,0,1,27.5,20,91.7,91.7,0,0,1,10.24,13.5,122.62,122.62,0,0,1,8,14.9c.53,1.31,1.13,2.6,1.62,3.93s1,2.64,1.48,4q1.37,4.05,2.44,8.2a120,120,0,0,1,2.93,17.07A76.25,76.25,0,0,0,417.71,55c-.23-.65-.48-1.3-.73-2q13.86-1.61,27.81-1.9c2-.07,4-.08,6-.07s4,0,6,.07l12,.43c1,0,2,.12,3,.21l3,.26,6,.52,3,.26c.5,0,1,.08,1.49.14l1.48.2,5.92.83,5.93.82,1.48.21,1.46.28,2.94.56,5.87,1.12,2.93.55,1.47.29,1.45.35L527.67,61c1,.22,1.92.5,2.88.79l2.86.85,5.72,1.7a308.89,308.89,0,0,1,44.26,17.63,306.18,306.18,0,0,1,40.68,24.64l4.8,3.51,2.4,1.75c.8.59,1.55,1.24,2.33,1.85l9.24,7.47,8.87,7.89c1.51,1.29,2.9,2.7,4.31,4.08l4.25,4.15a309.37,309.37,0,0,1,30.83,36,299.84,299.84,0,0,1,24.5,40.41l2.62,5.3,1.31,2.64c.41.9.79,1.81,1.18,2.71l4.7,10.82,4.17,11c.33.92.72,1.83,1,2.77l.9,2.8,1.81,5.61.9,2.81c.3.93.63,1.86.86,2.81l1.53,5.69c1,3.8,2.11,7.57,2.85,11.42l1.24,5.76.62,2.87.31,1.44.24,1.45,1.9,11.61A318,318,0,0,1,746.69,350a309.36,309.36,0,0,1-4.61,46.61l-2.25,11.48L737,419.46c-.24.94-.46,1.89-.72,2.83l-.84,2.8-1.69,5.59c-.57,1.86-1.09,3.73-1.7,5.58l-2,5.5c-2.47,7.38-5.55,14.53-8.59,21.67l-5,10.54c-.4.89-.85,1.74-1.32,2.6l-1.37,2.57-2.73,5.13a298.94,298.94,0,0,1-25.5,38.83l-7.34,9c-.31.38-.6.76-.92,1.12l-1,1.08-1.94,2.16-3.87,4.32-1.94,2.15c-.63.73-1.34,1.39-2,2.09l-4.08,4.12-4.07,4.12-4.26,3.92A276.15,276.15,0,0,1,618,585.81a297.68,297.68,0,0,1-40.24,22.42l-10.57,4.53c-.87.4-1.77.74-2.67,1.06l-2.7,1-5.38,2c-3.56,1.42-7.25,2.46-10.89,3.64L540,622.21c-1.84.53-3.7,1-5.54,1.48l-5.55,1.46-2.77.73c-.93.23-1.87.4-2.8.6l-11.22,2.37-11.31,1.79-2.82.46-2.85.3-5.69.61a284.27,284.27,0,0,1-45.66,1.09,290.07,290.07,0,0,1-45.07-6.24l-5.53-1.3c-.92-.22-1.85-.42-2.76-.66l-2.74-.74-5.48-1.48L376.81,621l-2.71-.83c-.91-.27-1.8-.6-2.69-.89L366,617.5c-1.79-.61-3.54-1.31-5.32-2s-3.54-1.29-5.28-2A279.54,279.54,0,0,1,315,593.35l-4.81-2.94-4.73-3.08-2.36-1.54-2.31-1.61L296.18,581c-6.06-4.45-12.05-9-17.72-13.9a280.46,280.46,0,0,1-31.77-31.69c-1.24-1.4-2.39-2.87-3.57-4.31s-2.38-2.88-3.52-4.36c-2.25-3-4.58-5.89-6.71-9-1.08-1.52-2.18-3-3.25-4.55l-3.11-4.64L225,506.23l-1.48-2.37-3-4.72-50.2-.17c16.27,31.79,39.94,68,82,100.34,6.76,5.33,13.84,10.23,21,15l5.44,3.46,2.72,1.73,2.77,1.64,5.53,3.29,5.64,3.12a317.13,317.13,0,0,0,46.89,21c2,.75,4.05,1.37,6.07,2.06s4.05,1.36,6.1,2l6.15,1.81c1,.3,2.05.62,3.08.89l3.1.81,6.2,1.62,6.25,1.42,3.12.71c1,.23,2.09.41,3.14.62l6.28,1.22a320,320,0,0,0,101.54,1.87l6.29-.91,3.14-.46,3.12-.61,12.46-2.46L530.67,656c1-.26,2.06-.5,3.08-.78l3-.92,6.07-1.84c2-.63,4-1.2,6.06-1.87l6-2.13c4-1.45,8-2.76,11.85-4.46l5.85-2.43,2.93-1.21c1-.4,2-.81,2.89-1.27l11.44-5.42a328.41,328.41,0,0,0,43.22-26,302.58,302.58,0,0,0,38.4-32.5l4.48-4.41,4.26-4.62,4.26-4.62c.7-.78,1.45-1.51,2.11-2.33l2-2.4,4-4.81,2-2.41,1-1.2c.33-.41.64-.83,1-1.25l7.59-10a329.18,329.18,0,0,0,26.13-42.7l2.77-5.61,1.38-2.8c.47-.94.93-1.87,1.33-2.84l5-11.47c3-7.76,6.07-15.52,8.48-23.49l1.91-5.95c.59-2,1.09-4,1.64-6l1.62-6,.8-3c.25-1,.45-2,.67-3L758.53,412l2-12.3a328,328,0,0,0,3.37-49.57A336,336,0,0,0,759.4,300.7Z"/><path class="cls-19" d="M314.84,175.18a89.18,89.18,0,0,1-44.38-25.27,95.23,95.23,0,0,1-18.9-28.54,92,92,0,0,1-7.14-33.72,85.82,85.82,0,0,0,5.5,34.37c.57,1.51,1.19,3,1.84,4.47q-10.75,9.93-20.53,20.86A302.75,302.75,0,0,0,202,185.77a303.11,303.11,0,0,1,29.66-38c6.51-7.09,13.38-13.86,20.53-20.29a83.13,83.13,0,0,0,16.6,24.09A89.22,89.22,0,0,0,297.89,171a88.17,88.17,0,0,0,16.78,5,90.65,90.65,0,0,0,17.38,1.52A90.42,90.42,0,0,1,314.84,175.18Z"/><path class="cls-19" d="M332.26,117.55H298L316.31,97.7c10.26-11.12,15.25-20.55,15.25-28.82,0-6.86-2.34-12.44-6.95-16.61s-10.79-6.2-18.51-6.2c-8.24,0-14.94,2.42-19.91,7.18s-7.54,11.12-7.54,18.81v1.77h13.52V72.06c0-4.59,1.19-8,3.63-10.55s5.8-3.7,10.3-3.7a11.23,11.23,0,0,1,8.64,3.38A12.3,12.3,0,0,1,318,70.07a17,17,0,0,1-2.08,8,63.45,63.45,0,0,1-8.09,10.79l-27.64,30.72v9.62h64a24.64,24.64,0,0,1-7.28-5.25A44.73,44.73,0,0,1,332.26,117.55Z"/><path class="cls-19" d="M359.44,128.87c-8.78,0-15.4-3-19.68-8.9-4.15-5.73-6.33-14.28-6.47-25.43V81.45c0-11.65,2.08-20.48,6.19-26.26,4.25-6,10.93-9,19.86-9s15.48,2.92,19.72,8.68c4.13,5.59,6.27,14.21,6.38,25.61V93.19c0,11.78-2.08,20.72-6.19,26.57C375,125.81,368.34,128.87,359.44,128.87Zm-.1-71.1c-4.39,0-7.48,1.57-9.44,4.81-2.12,3.48-3.22,9-3.29,16.5V94.73c0,8,1.13,13.85,3.37,17.51,2.09,3.44,5.18,5.11,9.46,5.11s7.25-1.57,9.27-4.78c2.16-3.44,3.31-9.08,3.41-16.76v-16c0-7.92-1.09-13.71-3.23-17.2C366.88,59.35,363.76,57.77,359.34,57.77Z"/></g></g></svg>